<svg xmlns="http://www.w3.org/2000/svg" xmlns:xlink="http://www.w3.org/1999/xlink" width="6912" zoomAndPan="magnify" viewBox="0 0 5184 2592.000001" height="3456" preserveAspectRatio="xMidYMid meet" version="1.0"><defs><clipPath id="1af0aca67a"><path d="M 1365 167.445312 L 2030 167.445312 L 2030 550 L 1365 550 Z M 1365 167.445312 " clip-rule="nonzero"/></clipPath><clipPath id="c7d367c51d"><path d="M 1388.925781 284.796875 C 1506.414062 249.242188 1535.785156 252.335938 1552.789062 266.25 C 1571.339844 278.613281 1579.066406 304.894531 1586.796875 331.175781 C 1599.164062 366.730469 1605.347656 427.019531 1609.984375 462.574219 C 1611.53125 487.304688 1619.261719 510.496094 1613.078125 525.953125 C 1608.4375 536.773438 1596.070312 547.59375 1586.796875 549.140625 C 1577.523438 550.6875 1562.0625 542.957031 1555.878906 533.683594 C 1548.152344 522.859375 1548.152344 505.855469 1551.242188 485.761719 C 1552.789062 450.207031 1568.246094 386.824219 1588.34375 341.996094 C 1608.4375 297.164062 1640.902344 239.96875 1671.820312 216.78125 C 1693.460938 201.320312 1722.832031 192.046875 1741.382812 196.683594 C 1756.839844 201.320312 1766.117188 212.144531 1775.390625 229.148438 C 1789.304688 255.425781 1797.035156 315.714844 1800.125 357.453125 C 1804.761719 397.648438 1807.855469 447.113281 1798.578125 474.941406 C 1793.941406 491.945312 1781.574219 512.039062 1770.753906 513.585938 C 1759.933594 515.132812 1738.292969 502.765625 1732.109375 487.304688 C 1721.285156 459.480469 1736.746094 388.371094 1753.75 345.085938 C 1770.753906 300.257812 1804.761719 253.882812 1835.679688 222.964844 C 1858.867188 199.777344 1891.332031 178.132812 1912.972656 170.40625 C 1926.886719 167.3125 1937.707031 165.765625 1948.527344 170.40625 C 1965.53125 179.679688 1984.082031 202.867188 1996.449219 232.238281 C 2018.09375 283.253906 2039.734375 423.925781 2024.273438 461.027344 C 2018.09375 476.484375 2002.632812 485.761719 1991.8125 485.761719 C 1980.992188 484.214844 1965.53125 465.664062 1963.988281 454.84375 C 1962.441406 447.113281 1968.625 433.203125 1976.355469 428.5625 C 1985.628906 423.925781 2005.726562 423.925781 2013.453125 430.109375 C 2021.183594 436.292969 2025.820312 457.933594 2022.730469 467.210938 C 2019.636719 474.941406 2008.816406 484.214844 1999.542969 484.214844 C 1990.265625 485.761719 1971.714844 476.484375 1967.078125 467.210938 C 1962.441406 461.027344 1963.988281 445.566406 1967.078125 439.382812 C 1971.714844 431.65625 1984.082031 423.925781 1991.8125 423.925781 C 2002.632812 423.925781 2021.183594 434.746094 2024.273438 444.023438 C 2025.820312 454.84375 2015 478.03125 2005.726562 482.667969 C 1996.449219 487.304688 1977.898438 482.667969 1967.078125 470.300781 C 1943.890625 440.929688 1954.710938 295.621094 1939.253906 260.066406 C 1933.070312 246.152344 1926.886719 233.785156 1917.609375 233.785156 C 1894.421875 235.332031 1832.589844 321.898438 1810.945312 368.273438 C 1792.394531 411.558594 1801.671875 481.121094 1787.757812 501.21875 C 1783.121094 508.949219 1776.9375 513.585938 1770.753906 513.585938 C 1759.933594 513.585938 1739.835938 501.21875 1732.109375 487.304688 C 1722.832031 465.664062 1742.929688 419.289062 1739.835938 382.1875 C 1738.292969 343.542969 1729.015625 266.25 1713.558594 263.15625 C 1696.554688 260.066406 1662.542969 326.535156 1645.539062 366.730469 C 1626.988281 411.558594 1628.535156 496.582031 1613.078125 525.953125 C 1605.347656 538.320312 1596.070312 549.140625 1586.796875 549.140625 C 1575.976562 550.6875 1562.0625 541.410156 1552.789062 527.5 C 1532.691406 495.035156 1543.511719 368.273438 1524.960938 335.8125 C 1515.6875 321.898438 1506.414062 315.714844 1490.953125 312.625 C 1466.21875 307.988281 1402.839844 349.726562 1382.742188 341.996094 C 1371.921875 337.359375 1365.738281 320.351562 1365.738281 311.078125 C 1367.285156 301.804688 1388.925781 284.796875 1388.925781 284.796875 " clip-rule="nonzero"/></clipPath><clipPath id="2e39d8a2a1"><path d="M 2092 117.605469 L 2382 117.605469 L 2382 821.636719 L 2092 821.636719 Z M 2092 117.605469 " clip-rule="nonzero"/></clipPath><clipPath id="b4fd2875a2"><path d="M 2158.765625 187.410156 C 2178.863281 366.730469 2181.953125 379.097656 2191.226562 386.824219 C 2197.410156 394.554688 2209.777344 403.828125 2220.601562 399.191406 C 2253.0625 385.28125 2288.617188 144.125 2327.265625 122.484375 C 2342.722656 113.207031 2364.363281 119.390625 2373.640625 128.667969 C 2384.460938 141.035156 2381.371094 167.3125 2381.371094 195.140625 C 2382.914062 241.515625 2376.730469 307.988281 2367.457031 379.097656 C 2353.542969 479.578125 2316.441406 669.71875 2300.984375 739.28125 C 2294.800781 768.652344 2294.800781 788.75 2285.527344 801.117188 C 2277.796875 811.9375 2265.429688 819.667969 2256.15625 821.210938 C 2246.878906 821.210938 2234.511719 813.484375 2229.875 805.753906 C 2225.238281 798.023438 2225.238281 781.019531 2229.875 773.289062 C 2234.511719 765.5625 2246.878906 759.378906 2256.15625 759.378906 C 2263.882812 757.832031 2276.25 764.015625 2280.886719 771.746094 C 2287.070312 777.929688 2288.617188 791.839844 2285.527344 801.117188 C 2282.433594 808.84375 2271.613281 818.121094 2263.882812 819.667969 C 2256.15625 821.210938 2242.242188 818.121094 2236.058594 811.9375 C 2229.875 807.300781 2223.691406 793.386719 2225.238281 785.65625 C 2228.328125 774.835938 2251.515625 757.832031 2262.339844 759.378906 C 2273.160156 760.921875 2288.617188 784.113281 2287.070312 794.933594 C 2285.527344 804.207031 2257.699219 821.210938 2248.425781 819.667969 C 2237.605469 816.574219 2229.875 804.207031 2225.238281 785.65625 C 2214.417969 723.824219 2290.164062 487.304688 2305.621094 369.820312 C 2317.988281 286.34375 2305.621094 159.582031 2322.625 151.855469 C 2330.355469 148.761719 2342.722656 171.949219 2350.453125 170.40625 C 2359.726562 170.40625 2372.09375 145.671875 2375.1875 147.21875 C 2384.460938 153.402344 2317.988281 351.269531 2283.980469 403.828125 C 2263.882812 433.203125 2245.332031 456.390625 2223.691406 461.027344 C 2202.050781 464.117188 2171.132812 450.207031 2152.582031 431.65625 C 2127.847656 408.46875 2113.9375 363.636719 2104.660156 323.445312 C 2095.386719 278.613281 2086.109375 196.683594 2100.023438 171.949219 C 2107.753906 161.128906 2121.664062 154.945312 2130.941406 156.492188 C 2141.761719 158.039062 2158.765625 187.410156 2158.765625 187.410156 " clip-rule="nonzero"/></clipPath><clipPath id="40a5eb92a6"><path d="M 1694 720.261719 L 2166 720.261719 L 2166 1746.363281 L 1694 1746.363281 Z M 1694 720.261719 " clip-rule="nonzero"/></clipPath><clipPath id="9628695e32"><path d="M 2070.652344 921.691406 C 2056.738281 977.34375 2030.457031 974.253906 2019.636719 963.429688 C 2004.179688 946.425781 2018.09375 886.136719 2010.363281 855.222656 C 2004.179688 830.488281 1996.449219 804.207031 1980.992188 793.386719 C 1965.53125 782.566406 1936.160156 782.566406 1917.609375 788.75 C 1897.515625 796.480469 1882.054688 811.9375 1865.050781 835.125 C 1835.679688 875.316406 1801.671875 972.707031 1784.667969 1034.542969 C 1770.753906 1082.460938 1764.570312 1121.109375 1761.480469 1169.03125 C 1755.296875 1224.683594 1752.203125 1286.515625 1758.386719 1349.898438 C 1766.117188 1421.007812 1786.214844 1518.394531 1809.402344 1575.59375 C 1826.40625 1615.785156 1849.59375 1654.429688 1869.6875 1671.4375 C 1878.964844 1679.164062 1886.695312 1685.347656 1900.605469 1683.800781 C 1926.886719 1680.710938 1987.175781 1637.425781 2018.09375 1600.324219 C 2053.648438 1560.132812 2079.925781 1487.476562 2093.839844 1445.738281 C 2101.570312 1419.460938 2113.933594 1391.636719 2103.113281 1377.722656 C 2090.746094 1360.71875 2025.820312 1377.722656 2010.363281 1363.808594 C 1997.996094 1354.535156 1993.359375 1331.347656 1997.996094 1320.523438 C 2001.085938 1312.796875 2015 1306.613281 2022.730469 1306.613281 C 2032.003906 1305.066406 2044.371094 1311.25 2049.007812 1318.980469 C 2055.191406 1326.707031 2053.648438 1346.804688 2049.007812 1356.082031 C 2044.371094 1363.808594 2030.457031 1368.445312 2022.730469 1368.445312 C 2013.453125 1366.902344 1996.449219 1352.988281 1994.902344 1343.714844 C 1991.8125 1334.4375 1999.542969 1317.433594 2010.363281 1309.703125 C 2027.367188 1297.335938 2084.5625 1300.429688 2107.75 1306.613281 C 2120.117188 1309.703125 2129.394531 1315.886719 2137.125 1323.617188 C 2147.945312 1332.890625 2157.21875 1342.167969 2161.855469 1356.082031 C 2168.039062 1374.628906 2166.496094 1399.363281 2161.855469 1427.191406 C 2154.128906 1468.929688 2134.03125 1533.855469 2107.75 1578.683594 C 2081.472656 1625.058594 2035.097656 1674.527344 1999.542969 1702.351562 C 1974.808594 1722.449219 1946.980469 1737.90625 1926.886719 1742.546875 C 1911.425781 1747.183594 1902.152344 1747.183594 1888.238281 1744.089844 C 1869.6875 1739.453125 1843.410156 1730.179688 1821.769531 1711.628906 C 1792.394531 1682.257812 1763.023438 1621.96875 1742.929688 1570.953125 C 1721.285156 1513.757812 1707.375 1447.285156 1699.644531 1385.453125 C 1691.914062 1325.164062 1693.460938 1264.875 1696.554688 1204.585938 C 1701.191406 1142.75 1708.917969 1077.824219 1724.378906 1017.535156 C 1738.292969 960.339844 1756.839844 901.597656 1783.121094 855.222656 C 1804.761719 815.027344 1837.226562 773.289062 1860.414062 753.195312 C 1874.328125 740.828125 1882.054688 736.191406 1897.515625 731.550781 C 1917.609375 723.824219 1950.074219 717.640625 1973.261719 722.277344 C 1994.902344 728.460938 2018.09375 743.917969 2033.550781 762.46875 C 2050.554688 782.566406 2062.921875 810.390625 2070.652344 839.761719 C 2078.378906 873.773438 2086.109375 937.152344 2075.289062 958.792969 C 2069.105469 971.160156 2055.191406 977.34375 2044.371094 978.890625 C 2036.640625 978.890625 2024.273438 972.707031 2019.636719 963.429688 C 2013.453125 952.609375 2013.453125 917.054688 2021.183594 907.78125 C 2027.367188 900.050781 2041.28125 898.503906 2049.007812 901.597656 C 2058.285156 904.6875 2070.652344 921.691406 2070.652344 921.691406 " clip-rule="nonzero"/></clipPath><clipPath id="fdce2edb51"><path d="M 2254 1254.3125 L 2552.789062 1254.3125 L 2552.789062 1664 L 2254 1664 Z M 2254 1254.3125 " clip-rule="nonzero"/></clipPath><clipPath id="f8e72dd056"><path d="M 2280.886719 1343.714844 C 2444.75 1252.507812 2455.570312 1252.507812 2469.484375 1255.597656 C 2480.304688 1258.691406 2492.671875 1263.328125 2501.945312 1274.148438 C 2518.949219 1294.246094 2531.316406 1346.804688 2539.046875 1385.453125 C 2548.320312 1425.644531 2548.320312 1468.929688 2548.320312 1512.210938 C 2549.867188 1555.496094 2559.144531 1625.058594 2543.683594 1646.703125 C 2535.957031 1659.070312 2515.859375 1665.253906 2506.582031 1662.160156 C 2497.308594 1659.070312 2484.941406 1638.972656 2486.488281 1629.699219 C 2486.488281 1618.875 2501.945312 1604.964844 2512.765625 1601.871094 C 2520.496094 1600.324219 2532.863281 1604.964844 2539.046875 1611.148438 C 2545.230469 1617.332031 2548.320312 1631.242188 2546.777344 1640.519531 C 2545.230469 1648.246094 2535.957031 1659.070312 2528.226562 1662.160156 C 2520.496094 1665.253906 2506.582031 1663.707031 2498.855469 1659.070312 C 2491.125 1652.886719 2484.941406 1632.789062 2488.035156 1623.515625 C 2489.578125 1614.238281 2500.402344 1604.964844 2508.128906 1603.417969 C 2517.40625 1600.324219 2531.316406 1603.417969 2537.5 1609.601562 C 2543.683594 1615.785156 2549.867188 1631.242188 2546.777344 1640.519531 C 2543.683594 1649.792969 2529.773438 1663.707031 2520.496094 1663.707031 C 2509.675781 1663.707031 2495.761719 1655.976562 2486.488281 1640.519531 C 2466.390625 1603.417969 2489.578125 1451.921875 2478.757812 1394.726562 C 2472.574219 1360.71875 2471.027344 1323.617188 2450.933594 1317.433594 C 2421.5625 1305.066406 2325.71875 1407.09375 2291.710938 1404 C 2274.703125 1402.457031 2256.15625 1385.453125 2254.609375 1374.628906 C 2253.0625 1365.355469 2280.886719 1343.714844 2280.886719 1343.714844 " clip-rule="nonzero"/></clipPath><clipPath id="2fd2e550ef"><path d="M 2273 1452 L 2566.425781 1452 L 2566.425781 1705.648438 L 2273 1705.648438 Z M 2273 1452 " clip-rule="nonzero"/></clipPath><clipPath id="ae8a31ec87"><path d="M 2472.574219 1518.394531 C 2359.726562 1543.128906 2331.902344 1603.417969 2334.992188 1621.96875 C 2338.085938 1632.789062 2350.453125 1638.972656 2361.273438 1642.0625 C 2372.09375 1645.15625 2382.914062 1640.519531 2399.917969 1634.335938 C 2430.835938 1620.421875 2501.945312 1550.859375 2529.773438 1546.222656 C 2542.140625 1544.675781 2551.414062 1547.765625 2557.597656 1553.949219 C 2563.78125 1561.679688 2566.871094 1581.777344 2563.78125 1591.050781 C 2559.144531 1598.78125 2546.777344 1606.507812 2539.046875 1606.507812 C 2529.773438 1608.054688 2515.859375 1603.417969 2512.765625 1595.6875 C 2506.582031 1586.414062 2509.675781 1557.042969 2517.40625 1550.859375 C 2526.679688 1544.675781 2556.050781 1550.859375 2562.234375 1560.132812 C 2568.417969 1567.863281 2566.871094 1583.320312 2559.144531 1597.234375 C 2543.683594 1625.058594 2458.664062 1674.527344 2423.109375 1691.53125 C 2404.558594 1700.808594 2392.191406 1705.445312 2375.1875 1705.445312 C 2353.542969 1705.445312 2321.082031 1693.078125 2305.621094 1682.257812 C 2294.800781 1674.527344 2288.617188 1666.796875 2283.980469 1655.976562 C 2277.796875 1645.15625 2273.160156 1634.335938 2273.160156 1618.875 C 2274.703125 1595.6875 2288.617188 1550.859375 2302.53125 1526.125 C 2313.351562 1507.574219 2327.265625 1492.117188 2344.269531 1479.75 C 2364.363281 1465.835938 2393.734375 1456.5625 2418.46875 1453.46875 C 2444.75 1451.921875 2483.394531 1453.46875 2495.761719 1465.835938 C 2505.039062 1473.566406 2506.582031 1490.570312 2503.492188 1499.84375 C 2498.855469 1509.121094 2472.574219 1518.394531 2472.574219 1518.394531 " clip-rule="nonzero"/></clipPath><clipPath id="bbd11cebe1"><path d="M 2675 685.078125 L 2785 685.078125 L 2785 1571.703125 L 2675 1571.703125 Z M 2675 685.078125 " clip-rule="nonzero"/></clipPath><clipPath id="57607a8d9b"><path d="M 2753.921875 713.003906 C 2781.746094 1558.585938 2774.019531 1566.316406 2764.742188 1569.410156 C 2755.46875 1572.5 2736.917969 1567.863281 2730.734375 1561.679688 C 2724.550781 1555.496094 2721.457031 1540.039062 2724.550781 1532.308594 C 2727.640625 1523.03125 2744.648438 1509.121094 2753.921875 1509.121094 C 2764.742188 1510.667969 2780.203125 1524.578125 2783.292969 1533.855469 C 2786.386719 1541.582031 2783.292969 1555.496094 2777.109375 1561.679688 C 2769.378906 1567.863281 2749.285156 1572.5 2740.007812 1567.863281 C 2732.28125 1564.769531 2723.003906 1553.949219 2723.003906 1544.675781 C 2723.003906 1533.855469 2740.007812 1510.667969 2750.832031 1509.121094 C 2761.652344 1509.121094 2783.292969 1529.214844 2784.839844 1540.039062 C 2784.839844 1549.3125 2767.835938 1570.953125 2757.011719 1570.953125 C 2746.191406 1572.5 2732.28125 1561.679688 2723.003906 1540.039062 C 2681.265625 1453.46875 2656.53125 793.386719 2692.085938 711.457031 C 2701.363281 692.90625 2713.730469 685.175781 2724.550781 685.175781 C 2733.824219 685.175781 2753.921875 713.003906 2753.921875 713.003906 " clip-rule="nonzero"/></clipPath><clipPath id="a26b329771"><path d="M 2916.09375 654 L 3012.539062 654 L 3012.539062 1619 L 2916.09375 1619 Z M 2916.09375 654 " clip-rule="nonzero"/></clipPath><clipPath id="d3ea7ce68a"><path d="M 2995.074219 682.085938 C 2995.074219 1434.917969 3018.265625 1546.222656 3010.535156 1586.414062 C 3008.988281 1600.324219 3004.351562 1606.507812 2998.167969 1612.691406 C 2991.984375 1617.332031 2978.070312 1618.875 2970.34375 1615.785156 C 2961.066406 1614.238281 2951.792969 1603.417969 2950.246094 1595.6875 C 2948.699219 1586.414062 2951.792969 1572.5 2957.976562 1566.316406 C 2962.613281 1560.132812 2976.527344 1555.496094 2984.253906 1557.042969 C 2993.53125 1558.585938 3004.351562 1566.316406 3007.441406 1574.046875 C 3012.082031 1581.777344 3010.535156 1595.6875 3007.441406 1603.417969 C 3002.804688 1609.601562 2990.4375 1618.875 2982.710938 1618.875 C 2971.886719 1617.332031 2948.699219 1597.234375 2948.699219 1587.960938 C 2948.699219 1577.136719 2971.886719 1555.496094 2981.164062 1557.042969 C 2991.984375 1557.042969 3010.535156 1580.230469 3010.535156 1591.050781 C 3010.535156 1600.324219 2995.074219 1617.332031 2984.253906 1617.332031 C 2974.980469 1618.875 2959.519531 1609.601562 2950.246094 1595.6875 C 2928.605469 1560.132812 2934.789062 1459.652344 2931.695312 1360.71875 C 2923.964844 1193.765625 2899.234375 751.648438 2934.789062 678.992188 C 2942.515625 661.988281 2956.429688 652.714844 2965.703125 654.257812 C 2976.527344 654.257812 2995.074219 682.085938 2995.074219 682.085938 " clip-rule="nonzero"/></clipPath><clipPath id="5a418f0506"><path d="M 3129 1189 L 3410 1189 L 3410 1620.90625 L 3129 1620.90625 Z M 3129 1189 " clip-rule="nonzero"/></clipPath><clipPath id="d038f81d6e"><path d="M 3203.765625 1363.808594 C 3228.5 1421.007812 3240.867188 1411.730469 3248.597656 1402.457031 C 3260.964844 1388.542969 3267.148438 1360.71875 3270.238281 1339.074219 C 3274.875 1315.886719 3276.421875 1280.332031 3267.148438 1266.421875 C 3260.964844 1257.144531 3247.050781 1249.414062 3239.320312 1252.507812 C 3230.046875 1255.597656 3225.410156 1272.605469 3219.226562 1288.0625 C 3208.40625 1315.886719 3192.945312 1373.085938 3191.398438 1408.640625 C 3189.855469 1434.917969 3189.855469 1458.105469 3199.128906 1481.292969 C 3208.40625 1507.574219 3236.230469 1557.042969 3253.234375 1560.132812 C 3265.601562 1563.226562 3277.96875 1549.3125 3291.882812 1536.945312 C 3313.523438 1515.304688 3339.804688 1445.738281 3361.445312 1433.375 C 3370.71875 1425.644531 3381.542969 1425.644531 3389.269531 1428.734375 C 3397 1431.828125 3406.273438 1441.101562 3409.367188 1448.832031 C 3410.914062 1458.105469 3407.820312 1470.472656 3403.183594 1478.203125 C 3397 1484.386719 3384.632812 1489.023438 3375.359375 1489.023438 C 3367.628906 1487.476562 3355.261719 1479.75 3352.167969 1472.019531 C 3347.53125 1464.289062 3347.53125 1450.378906 3352.167969 1442.648438 C 3358.351562 1434.917969 3386.179688 1425.644531 3395.453125 1431.828125 C 3404.730469 1434.917969 3410.914062 1450.378906 3409.367188 1465.835938 C 3404.730469 1498.300781 3341.347656 1587.960938 3304.246094 1609.601562 C 3279.515625 1623.515625 3247.050781 1621.96875 3226.953125 1615.785156 C 3209.949219 1611.148438 3200.675781 1600.324219 3188.308594 1586.414062 C 3169.757812 1564.769531 3146.570312 1523.03125 3137.296875 1490.570312 C 3129.566406 1462.746094 3128.019531 1436.464844 3129.566406 1405.546875 C 3131.113281 1368.445312 3140.386719 1318.980469 3152.753906 1286.515625 C 3160.484375 1261.78125 3171.304688 1240.140625 3186.761719 1224.683594 C 3203.765625 1207.675781 3231.59375 1189.128906 3253.234375 1189.128906 C 3273.332031 1189.128906 3298.066406 1204.585938 3311.976562 1221.589844 C 3325.890625 1237.050781 3332.074219 1260.238281 3333.621094 1286.515625 C 3338.257812 1317.433594 3333.621094 1363.808594 3319.707031 1397.820312 C 3307.339844 1430.28125 3273.332031 1475.113281 3251.6875 1487.476562 C 3240.867188 1493.660156 3230.046875 1493.660156 3217.679688 1489.023438 C 3199.128906 1482.839844 3172.851562 1455.015625 3160.484375 1433.375 C 3148.117188 1411.730469 3138.839844 1371.539062 3146.570312 1356.082031 C 3151.207031 1345.257812 3168.210938 1339.074219 3177.488281 1340.621094 C 3188.308594 1342.167969 3203.765625 1363.808594 3203.765625 1363.808594 " clip-rule="nonzero"/></clipPath><clipPath id="9af4ccf65a"><path d="M 3563 1148 L 3816 1148 L 3816 1504 L 3563 1504 Z M 3563 1148 " clip-rule="nonzero"/></clipPath><clipPath id="b5bcaf4194"><path d="M 3622.695312 1169.03125 C 3681.4375 1359.171875 3696.898438 1425.644531 3690.714844 1459.652344 C 3687.621094 1478.203125 3679.890625 1495.207031 3670.617188 1501.390625 C 3659.796875 1506.027344 3641.246094 1504.484375 3631.96875 1496.753906 C 3619.605469 1484.386719 3616.511719 1447.285156 3621.148438 1417.914062 C 3628.878906 1369.992188 3669.070312 1289.609375 3699.988281 1249.414062 C 3721.628906 1220.042969 3752.546875 1187.582031 3774.191406 1184.488281 C 3788.101562 1181.398438 3809.746094 1193.765625 3814.382812 1203.039062 C 3817.472656 1210.769531 3814.382812 1224.683594 3809.746094 1232.410156 C 3803.5625 1238.59375 3791.195312 1244.777344 3783.464844 1243.230469 C 3772.644531 1241.6875 3757.183594 1227.773438 3754.09375 1218.5 C 3752.546875 1210.769531 3755.640625 1196.855469 3763.367188 1190.671875 C 3769.550781 1184.488281 3791.195312 1179.851562 3800.46875 1186.035156 C 3808.199219 1192.21875 3815.929688 1215.40625 3811.289062 1229.320312 C 3805.105469 1246.324219 3772.644531 1254.054688 3754.09375 1277.242188 C 3723.175781 1315.886719 3690.714844 1427.191406 3662.886719 1447.285156 C 3650.519531 1455.015625 3636.609375 1459.652344 3628.878906 1453.46875 C 3610.328125 1439.558594 3618.058594 1354.535156 3605.691406 1308.160156 C 3594.871094 1263.328125 3559.316406 1209.222656 3563.953125 1181.398438 C 3565.5 1165.9375 3577.867188 1150.480469 3587.140625 1148.933594 C 3597.960938 1145.84375 3622.695312 1169.03125 3622.695312 1169.03125 " clip-rule="nonzero"/></clipPath><clipPath id="00a7acd971"><path d="M 3997 1150 L 4481 1150 L 4481 1776 L 3997 1776 Z M 3997 1150 " clip-rule="nonzero"/></clipPath><clipPath id="12c85a25e2"><path d="M 4066.359375 1190.671875 C 4070.996094 1352.988281 4072.539062 1362.261719 4078.722656 1369.992188 C 4086.453125 1376.175781 4098.820312 1385.453125 4109.640625 1382.359375 C 4131.285156 1376.175781 4165.292969 1320.523438 4180.75 1283.425781 C 4196.210938 1247.871094 4186.933594 1186.035156 4202.394531 1165.9375 C 4210.121094 1155.117188 4224.035156 1148.933594 4233.308594 1150.480469 C 4241.039062 1150.480469 4250.316406 1155.117188 4256.5 1167.484375 C 4282.777344 1212.316406 4299.78125 1476.65625 4296.691406 1577.136719 C 4293.597656 1634.335938 4288.960938 1677.617188 4273.503906 1713.175781 C 4261.136719 1739.453125 4241.039062 1768.824219 4225.582031 1775.007812 C 4214.761719 1778.101562 4199.300781 1773.460938 4191.570312 1767.277344 C 4182.296875 1761.09375 4177.660156 1748.730469 4174.566406 1734.816406 C 4169.929688 1714.71875 4169.929688 1685.347656 4173.023438 1660.613281 C 4176.113281 1638.972656 4180.75 1625.058594 4194.664062 1597.234375 C 4222.488281 1533.855469 4322.96875 1388.542969 4363.164062 1309.703125 C 4389.441406 1257.144531 4397.171875 1192.21875 4421.90625 1172.121094 C 4435.816406 1161.300781 4459.003906 1158.210938 4468.28125 1162.847656 C 4476.011719 1169.03125 4480.648438 1195.3125 4476.011719 1203.039062 C 4469.828125 1212.316406 4438.910156 1218.5 4429.632812 1212.316406 C 4421.90625 1206.132812 4418.8125 1175.214844 4424.996094 1167.484375 C 4432.726562 1159.757812 4462.097656 1158.210938 4469.828125 1165.9375 C 4477.554688 1172.121094 4482.195312 1193.765625 4476.011719 1203.039062 C 4471.371094 1210.769531 4442 1220.042969 4432.726562 1213.859375 C 4424.996094 1209.222656 4418.8125 1179.851562 4423.453125 1170.578125 C 4428.089844 1162.847656 4451.277344 1156.664062 4460.550781 1159.757812 C 4469.828125 1162.847656 4479.101562 1175.214844 4480.648438 1189.128906 C 4482.195312 1215.40625 4454.367188 1264.875 4431.179688 1314.34375 C 4390.988281 1394.726562 4278.140625 1543.128906 4251.859375 1620.421875 C 4236.402344 1662.160156 4244.132812 1722.449219 4234.855469 1723.996094 C 4228.671875 1725.539062 4217.851562 1710.082031 4214.761719 1694.625 C 4205.484375 1657.523438 4234.855469 1567.863281 4233.308594 1493.660156 C 4233.308594 1400.910156 4182.296875 1229.320312 4197.753906 1179.851562 C 4203.9375 1162.847656 4214.761719 1152.027344 4225.582031 1150.480469 C 4234.855469 1148.933594 4250.316406 1156.664062 4256.5 1167.484375 C 4264.226562 1178.304688 4264.226562 1199.949219 4261.136719 1220.042969 C 4259.589844 1249.414062 4245.675781 1294.246094 4230.21875 1326.707031 C 4214.761719 1360.71875 4191.570312 1399.363281 4166.839844 1417.914062 C 4146.742188 1433.375 4122.007812 1444.195312 4098.820312 1442.648438 C 4077.179688 1442.648438 4047.808594 1428.734375 4032.347656 1411.730469 C 4016.890625 1394.726562 4010.707031 1371.539062 4006.070312 1343.714844 C 3998.339844 1300.429688 3990.609375 1203.039062 4007.613281 1176.761719 C 4015.34375 1164.394531 4035.441406 1158.210938 4046.261719 1161.300781 C 4053.992188 1164.394531 4066.359375 1190.671875 4066.359375 1190.671875 " clip-rule="nonzero"/></clipPath></defs><g clip-path="url(#1af0aca67a)"><g clip-path="url(#c7d367c51d)"><path fill="#353535" d="M 1303.90625 108.570312 L 2086.949219 108.570312 L 2086.949219 610.976562 L 1303.90625 610.976562 Z M 1303.90625 108.570312 " fill-opacity="1" fill-rule="nonzero"/></g></g><g clip-path="url(#2e39d8a2a1)"><g clip-path="url(#b4fd2875a2)"><path fill="#353535" d="M 2038.1875 60.648438 L 2443.203125 60.648438 L 2443.203125 883.335938 L 2038.1875 883.335938 Z M 2038.1875 60.648438 " fill-opacity="1" fill-rule="nonzero"/></g></g><g clip-path="url(#40a5eb92a6)"><g clip-path="url(#9628695e32)"><path fill="#353535" d="M 1634.71875 660.441406 L 2223.691406 660.441406 L 2223.691406 1806.179688 L 1634.71875 1806.179688 Z M 1634.71875 660.441406 " fill-opacity="1" fill-rule="nonzero"/></g></g><g clip-path="url(#fdce2edb51)"><g clip-path="url(#f8e72dd056)"><path fill="#353535" d="M 2192.773438 1193.765625 L 2611.703125 1193.765625 L 2611.703125 1727.242188 L 2192.773438 1727.242188 Z M 2192.773438 1193.765625 " fill-opacity="1" fill-rule="nonzero"/></g></g><g clip-path="url(#2fd2e550ef)"><g clip-path="url(#ae8a31ec87)"><path fill="#353535" d="M 2211.324219 1391.636719 L 2625.121094 1391.636719 L 2625.121094 1767.277344 L 2211.324219 1767.277344 Z M 2211.324219 1391.636719 " fill-opacity="1" fill-rule="nonzero"/></g></g><g clip-path="url(#bbd11cebe1)"><g clip-path="url(#57607a8d9b)"><path fill="#353535" d="M 2630.253906 623.34375 L 2849.765625 623.34375 L 2849.765625 1634.296875 L 2630.253906 1634.296875 Z M 2630.253906 623.34375 " fill-opacity="1" fill-rule="nonzero"/></g></g><path fill="#e8799a" d="M 1448.421875 1198.738281 C 1495.902344 1198.738281 1501.089844 1549.105469 1591 1592.492188 C 1680.777344 1635.742188 1958.023438 1421.265625 1987.628906 1458.375 C 2017.234375 1495.621094 1746.542969 1718.011719 1768.78125 1815.289062 C 1790.882812 1912.570312 2131.441406 1995.519531 2120.796875 2041.910156 C 2110.292969 2088.160156 1767.417969 2015.304688 1705.335938 2093.207031 C 1643.117188 2171.25 1790.472656 2489.144531 1747.632812 2509.746094 C 1704.925781 2530.484375 1548.160156 2216.957031 1448.421875 2216.957031 C 1348.679688 2216.957031 1191.914062 2530.484375 1149.207031 2509.746094 C 1106.367188 2489.144531 1253.722656 2171.25 1191.503906 2093.207031 C 1129.421875 2015.304688 786.550781 2088.160156 776.046875 2041.910156 C 765.402344 1995.519531 1105.957031 1912.570312 1128.058594 1815.289062 C 1150.300781 1718.011719 879.605469 1495.621094 909.214844 1458.375 C 938.820312 1421.265625 1216.0625 1635.742188 1305.839844 1592.492188 C 1395.753906 1549.105469 1400.9375 1198.738281 1448.421875 1198.738281 Z M 1448.421875 1198.738281 " fill-opacity="1" fill-rule="evenodd"/><path fill="#000000" d="M 1448.421875 1194.238281 C 1442.964844 1194.238281 1437.503906 1197.511719 1432.871094 1204.195312 C 1424 1216.609375 1416.496094 1242.125 1409.265625 1274.597656 C 1395.210938 1337.902344 1381.835938 1428.222656 1359.875 1496.851562 C 1351.277344 1523.863281 1341.316406 1547.46875 1329.308594 1564.660156 C 1321.671875 1575.574219 1313.34375 1583.757812 1303.933594 1588.398438 C 1294.515625 1592.902344 1282.785156 1594.265625 1269.546875 1593.445312 C 1248.675781 1592.082031 1223.976562 1585.125 1197.511719 1575.164062 C 1130.105469 1549.511719 1051.242188 1503.535156 992.984375 1475.019531 C 962.96875 1460.421875 938.410156 1450.460938 923.128906 1449.644531 C 914.941406 1449.097656 909.074219 1451.28125 905.664062 1455.511719 C 902.253906 1459.875 901.4375 1466.152344 903.753906 1473.929688 C 907.847656 1488.664062 923.128906 1510.492188 944.003906 1536.417969 C 984.796875 1586.898438 1047.148438 1653.476562 1087.128906 1713.507812 C 1102.816406 1737.113281 1115.097656 1759.625 1120.964844 1779.679688 C 1124.789062 1792.367188 1126.011719 1804.101562 1123.695312 1814.335938 C 1121.375 1824.566406 1115.238281 1834.527344 1106.230469 1844.351562 C 1092.175781 1859.902344 1071.4375 1874.777344 1047.015625 1889.238281 C 984.9375 1925.9375 899.933594 1958.957031 841.265625 1986.789062 C 811.109375 2001.113281 787.914062 2014.074219 777.820312 2025.539062 C 772.363281 2031.539062 770.316406 2037.542969 771.542969 2042.863281 C 772.773438 2048.320312 777.136719 2052.824219 784.78125 2055.960938 C 798.828125 2061.691406 825.433594 2063.464844 858.730469 2063.191406 C 923.539062 2062.785156 1014.542969 2055.6875 1086.445312 2061.828125 C 1114.6875 2064.285156 1139.929688 2068.648438 1159.308594 2076.566406 C 1171.585938 2081.613281 1181.410156 2087.886719 1187.960938 2096.074219 C 1194.503906 2104.261719 1198.464844 2115.3125 1200.644531 2128.410156 C 1203.921875 2149.148438 1202.691406 2174.660156 1198.738281 2202.765625 C 1188.773438 2274.121094 1161.625 2361.304688 1146.75 2424.476562 C 1139.113281 2456.808594 1134.882812 2483.140625 1137.476562 2498.148438 C 1138.84375 2506.199219 1142.253906 2511.519531 1147.160156 2513.839844 C 1152.207031 2516.296875 1158.347656 2515.613281 1165.582031 2511.65625 C 1178.953125 2504.289062 1196.828125 2484.640625 1217.425781 2458.445312 C 1257.542969 2407.421875 1308.710938 2331.835938 1358.230469 2279.582031 C 1377.742188 2258.976562 1396.984375 2242.058594 1415.265625 2231.828125 C 1426.863281 2225.277344 1437.917969 2221.457031 1448.421875 2221.457031 C 1458.925781 2221.457031 1469.980469 2225.277344 1481.578125 2231.828125 C 1499.855469 2242.058594 1519.097656 2258.976562 1538.609375 2279.582031 C 1588.132812 2331.835938 1639.296875 2407.421875 1679.414062 2458.445312 C 1700.011719 2484.640625 1717.890625 2504.289062 1731.261719 2511.65625 C 1738.492188 2515.613281 1744.632812 2516.296875 1749.679688 2513.839844 C 1754.589844 2511.519531 1758 2506.199219 1759.363281 2498.148438 C 1761.960938 2483.140625 1757.726562 2456.808594 1750.089844 2424.476562 C 1735.214844 2361.304688 1708.066406 2274.121094 1698.105469 2202.765625 C 1694.152344 2174.660156 1692.917969 2149.148438 1696.199219 2128.410156 C 1698.375 2115.3125 1702.335938 2104.261719 1708.882812 2096.074219 C 1715.429688 2087.886719 1725.253906 2081.613281 1737.535156 2076.566406 C 1756.914062 2068.648438 1782.15625 2064.285156 1810.394531 2061.828125 C 1882.296875 2055.6875 1973.300781 2062.785156 2038.109375 2063.191406 C 2071.40625 2063.464844 2098.011719 2061.691406 2112.058594 2055.960938 C 2119.703125 2052.824219 2124.066406 2048.320312 2125.300781 2042.863281 C 2126.523438 2037.542969 2124.476562 2031.539062 2119.019531 2025.539062 C 2108.925781 2014.074219 2085.730469 2001.113281 2055.578125 1986.789062 C 1996.90625 1958.957031 1911.90625 1925.9375 1849.824219 1889.238281 C 1825.40625 1874.777344 1804.667969 1859.902344 1790.613281 1844.351562 C 1781.605469 1834.527344 1775.464844 1824.566406 1773.148438 1814.335938 C 1770.828125 1804.101562 1772.054688 1792.367188 1775.875 1779.679688 C 1781.742188 1759.625 1794.023438 1737.113281 1809.714844 1713.507812 C 1849.691406 1653.476562 1912.042969 1586.898438 1952.835938 1536.417969 C 1973.710938 1510.492188 1988.992188 1488.664062 1993.085938 1473.929688 C 1995.402344 1466.152344 1994.589844 1459.875 1991.179688 1455.511719 C 1987.765625 1451.28125 1981.898438 1449.097656 1973.710938 1449.644531 C 1958.433594 1450.460938 1933.875 1460.421875 1903.855469 1475.019531 C 1845.597656 1503.535156 1766.734375 1549.511719 1699.332031 1575.164062 C 1672.863281 1585.125 1648.164062 1592.082031 1627.296875 1593.445312 C 1614.054688 1594.265625 1602.324219 1592.902344 1592.90625 1588.398438 C 1583.496094 1583.757812 1575.171875 1575.574219 1567.535156 1564.660156 C 1555.527344 1547.46875 1545.5625 1523.863281 1536.96875 1496.851562 C 1515.003906 1428.222656 1501.632812 1337.902344 1487.578125 1274.597656 C 1480.34375 1242.125 1472.839844 1216.609375 1463.972656 1204.195312 C 1459.335938 1197.511719 1453.878906 1194.238281 1448.421875 1194.238281 Z M 1448.421875 1203.242188 C 1450.195312 1203.242188 1451.832031 1204.195312 1453.46875 1205.695312 C 1455.652344 1207.742188 1457.832031 1210.882812 1459.878906 1214.835938 C 1466.839844 1228.070312 1472.839844 1249.902344 1478.707031 1276.644531 C 1492.902344 1340.085938 1506.269531 1430.816406 1528.238281 1499.714844 C 1537.246094 1527.683594 1547.609375 1552.105469 1560.03125 1569.84375 C 1568.625 1582.257812 1578.308594 1591.398438 1588.953125 1596.582031 C 1599.730469 1601.632812 1612.832031 1603.542969 1627.839844 1602.585938 C 1649.53125 1601.085938 1675.050781 1593.992188 1702.609375 1583.621094 C 1770.144531 1557.835938 1849.414062 1511.859375 1907.949219 1483.207031 C 1932.507812 1471.199219 1953.246094 1462.332031 1967.84375 1459.464844 C 1972.210938 1458.648438 1976.03125 1458.375 1979.03125 1458.785156 C 1981.21875 1459.195312 1982.992188 1459.875 1984.085938 1461.242188 C 1985.171875 1462.605469 1985.449219 1464.515625 1985.308594 1466.699219 C 1985.171875 1469.835938 1983.945312 1473.382812 1982.171875 1477.476562 C 1976.171875 1491.121094 1962.9375 1509.402344 1945.742188 1530.6875 C 1904.8125 1581.304688 1842.320312 1648.292969 1802.210938 1708.460938 C 1785.835938 1732.882812 1773.285156 1756.351562 1767.144531 1777.089844 C 1762.773438 1791.550781 1761.6875 1804.785156 1764.277344 1816.382812 C 1766.867188 1827.839844 1773.691406 1839.304688 1783.789062 1850.492188 C 1798.386719 1866.453125 1819.945312 1882.144531 1845.1875 1897.015625 C 1907.539062 1933.851562 1992.8125 1967.144531 2051.621094 1994.976562 C 2076.453125 2006.710938 2096.371094 2017.488281 2107.695312 2027.175781 C 2111.105469 2030.039062 2113.5625 2032.769531 2115.199219 2035.359375 C 2116.292969 2037.269531 2116.835938 2039.179688 2116.429688 2040.816406 C 2116.019531 2042.589844 2114.65625 2043.957031 2112.882812 2045.183594 C 2110.425781 2046.957031 2106.878906 2048.320312 2102.507812 2049.550781 C 2088.183594 2053.234375 2065.539062 2054.324219 2038.25 2054.1875 C 1973.03125 2053.78125 1881.753906 2046.683594 1809.714844 2052.824219 C 1780.378906 2055.28125 1754.183594 2060.054688 1734.121094 2068.105469 C 1720.207031 2073.835938 1709.160156 2081.203125 1701.789062 2090.480469 C 1694.285156 2099.757812 1689.648438 2112.171875 1687.191406 2127.046875 C 1683.777344 2148.328125 1685.003906 2174.933594 1689.097656 2203.996094 C 1699.058594 2275.621094 1726.347656 2363.078125 1741.222656 2426.519531 C 1747.496094 2453.125 1751.589844 2475.363281 1751.046875 2490.371094 C 1750.90625 2494.738281 1750.363281 2498.421875 1749.128906 2501.289062 C 1748.316406 2503.335938 1747.363281 2504.972656 1745.71875 2505.652344 C 1744.082031 2506.472656 1742.175781 2506.335938 1740.128906 2505.652344 C 1737.128906 2504.835938 1733.851562 2502.925781 1730.308594 2500.195312 C 1718.433594 2491.328125 1703.5625 2474.273438 1686.648438 2452.851562 C 1646.257812 2401.691406 1594.953125 2325.832031 1545.152344 2273.304688 C 1524.964844 2252.019531 1504.902344 2234.417969 1486.082031 2223.914062 C 1472.980469 2216.546875 1460.289062 2212.453125 1448.421875 2212.453125 C 1436.550781 2212.453125 1423.863281 2216.546875 1410.761719 2223.914062 C 1391.9375 2234.417969 1371.875 2252.019531 1351.6875 2273.304688 C 1301.886719 2325.832031 1250.582031 2401.691406 1210.195312 2452.851562 C 1193.277344 2474.273438 1178.410156 2491.328125 1166.535156 2500.195312 C 1162.992188 2502.925781 1159.710938 2504.835938 1156.710938 2505.652344 C 1154.664062 2506.335938 1152.757812 2506.472656 1151.121094 2505.652344 C 1149.480469 2504.972656 1148.523438 2503.335938 1147.710938 2501.289062 C 1146.480469 2498.421875 1145.9375 2494.738281 1145.796875 2490.371094 C 1145.253906 2475.363281 1149.347656 2453.125 1155.617188 2426.519531 C 1170.496094 2363.078125 1197.78125 2275.621094 1207.746094 2203.996094 C 1211.835938 2174.933594 1213.0625 2148.328125 1209.652344 2127.046875 C 1207.195312 2112.171875 1202.558594 2099.757812 1195.054688 2090.480469 C 1187.683594 2081.203125 1176.632812 2073.835938 1162.71875 2068.105469 C 1142.65625 2060.054688 1116.460938 2055.28125 1087.128906 2052.824219 C 1015.085938 2046.683594 923.8125 2053.78125 858.589844 2054.1875 C 831.304688 2054.324219 808.660156 2053.234375 794.332031 2049.550781 C 789.960938 2048.320312 786.417969 2046.957031 783.960938 2045.183594 C 782.183594 2043.957031 780.820312 2042.589844 780.410156 2040.816406 C 780.007812 2039.179688 780.550781 2037.269531 781.640625 2035.359375 C 783.277344 2032.769531 785.734375 2030.039062 789.144531 2027.175781 C 800.472656 2017.488281 820.386719 2006.710938 845.21875 1994.976562 C 904.027344 1967.144531 989.300781 1933.851562 1051.652344 1897.015625 C 1076.894531 1882.144531 1098.453125 1866.453125 1113.050781 1850.492188 C 1123.152344 1839.304688 1129.972656 1827.839844 1132.5625 1816.382812 C 1135.152344 1804.785156 1134.066406 1791.550781 1129.695312 1777.089844 C 1123.554688 1756.351562 1111.003906 1732.882812 1094.632812 1708.460938 C 1054.519531 1648.292969 992.03125 1581.304688 951.097656 1530.6875 C 933.90625 1509.402344 920.671875 1491.121094 914.671875 1477.476562 C 912.894531 1473.382812 911.671875 1469.835938 911.53125 1466.699219 C 911.390625 1464.515625 911.671875 1462.605469 912.757812 1461.242188 C 913.847656 1459.875 915.625 1459.195312 917.808594 1458.785156 C 920.808594 1458.375 924.632812 1458.648438 928.996094 1459.464844 C 943.59375 1462.332031 964.332031 1471.199219 988.890625 1483.207031 C 1047.429688 1511.859375 1126.695312 1557.835938 1194.234375 1583.621094 C 1221.792969 1593.992188 1247.3125 1601.085938 1269.003906 1602.585938 C 1284.011719 1603.542969 1297.113281 1601.632812 1307.886719 1596.582031 C 1318.53125 1591.398438 1328.214844 1582.257812 1336.8125 1569.84375 C 1349.230469 1552.105469 1359.597656 1527.683594 1368.605469 1499.714844 C 1390.574219 1430.816406 1403.9375 1340.085938 1418.132812 1276.644531 C 1424 1249.902344 1430 1228.070312 1436.960938 1214.835938 C 1439.007812 1210.882812 1441.1875 1207.742188 1443.375 1205.695312 C 1445.007812 1204.195312 1446.644531 1203.242188 1448.421875 1203.242188 Z M 1448.421875 1203.242188 " fill-opacity="1" fill-rule="evenodd"/><path fill="#ffae15" d="M 1448.734375 1411.171875 C 1480.84375 1411.171875 1484.351562 1648.117188 1545.15625 1677.457031 C 1605.871094 1706.707031 1793.363281 1561.660156 1813.382812 1586.757812 C 1833.40625 1611.949219 1650.34375 1762.34375 1665.382812 1828.132812 C 1680.332031 1893.917969 1910.640625 1950.015625 1903.441406 1981.386719 C 1896.339844 2012.667969 1664.460938 1963.394531 1622.480469 2016.082031 C 1580.402344 2068.859375 1680.054688 2283.839844 1651.082031 2297.773438 C 1622.199219 2311.796875 1516.183594 2099.765625 1448.734375 2099.765625 C 1381.28125 2099.765625 1275.265625 2311.796875 1246.382812 2297.773438 C 1217.410156 2283.839844 1317.0625 2068.859375 1274.984375 2016.082031 C 1233.003906 1963.394531 1001.125 2012.667969 994.023438 1981.386719 C 986.824219 1950.015625 1217.132812 1893.917969 1232.082031 1828.132812 C 1247.121094 1762.34375 1064.058594 1611.949219 1084.082031 1586.757812 C 1104.101562 1561.660156 1291.59375 1706.707031 1352.308594 1677.457031 C 1413.113281 1648.117188 1416.621094 1411.171875 1448.734375 1411.171875 Z M 1448.734375 1411.171875 " fill-opacity="1" fill-rule="evenodd"/><path fill="#000000" d="M 1448.734375 1406.652344 C 1444.582031 1406.652344 1440.523438 1408.957031 1437.015625 1413.941406 C 1430.921875 1422.523438 1425.757812 1439.960938 1420.773438 1462.195312 C 1411.269531 1504.917969 1402.320312 1566 1387.464844 1612.316406 C 1381.652344 1630.492188 1375.011719 1646.269531 1366.980469 1657.804688 C 1362 1664.910156 1356.554688 1670.355469 1350.371094 1673.304688 C 1344.1875 1676.257812 1336.53125 1677.179688 1327.859375 1676.628906 C 1313.832031 1675.703125 1297.316406 1671.089844 1279.601562 1664.355469 C 1234.019531 1647.007812 1180.78125 1616.007812 1141.378906 1596.722656 C 1120.894531 1586.757812 1104.007812 1579.929688 1093.585938 1579.378906 C 1087.398438 1579.007812 1083.0625 1580.761719 1080.480469 1583.992188 C 1077.898438 1587.21875 1077.25 1591.832031 1078.910156 1597.738281 C 1081.863281 1607.703125 1092.199219 1622.742188 1106.503906 1640.457031 C 1134.089844 1674.503906 1176.167969 1719.625 1203.199219 1760.128906 C 1213.71875 1775.90625 1221.929688 1791.039062 1225.898438 1804.417969 C 1228.390625 1812.8125 1229.222656 1820.472656 1227.652344 1827.117188 C 1226.175781 1833.851562 1222.113281 1840.308594 1216.210938 1846.769531 C 1206.800781 1857.195312 1192.867188 1867.160156 1176.535156 1876.847656 C 1134.550781 1901.667969 1077.066406 1923.996094 1037.484375 1942.820312 C 1016.90625 1952.507812 1001.035156 1961.550781 994.117188 1969.300781 C 990.054688 1973.914062 988.667969 1978.34375 989.59375 1982.402344 C 990.515625 1986.371094 993.65625 1989.875 999.375 1992.183594 C 1008.96875 1996.152344 1027.148438 1997.441406 1049.941406 1997.257812 C 1093.769531 1996.980469 1155.21875 1992.183594 1203.753906 1996.335938 C 1222.765625 1997.996094 1239.644531 2000.949219 1252.65625 2006.207031 C 1260.683594 2009.4375 1267.238281 2013.589844 1271.480469 2018.941406 C 1275.726562 2024.292969 1278.308594 2031.582031 1279.695312 2040.164062 C 1282 2054.003906 1281.078125 2071.164062 1278.492188 2089.988281 C 1271.667969 2138.152344 1253.300781 2197.109375 1243.335938 2239.738281 C 1238.078125 2261.882812 1235.21875 2279.875 1236.972656 2290.207031 C 1237.988281 2296.207031 1240.664062 2300.082031 1244.351562 2301.925781 C 1248.136719 2303.679688 1252.75 2303.402344 1258.195312 2300.359375 C 1267.238281 2295.375 1279.601562 2281.902344 1293.625 2264.003906 C 1320.753906 2229.589844 1355.355469 2178.472656 1388.851562 2143.132812 C 1401.953125 2129.292969 1414.777344 2117.945312 1427.050781 2111.117188 C 1434.613281 2106.78125 1441.90625 2104.289062 1448.734375 2104.289062 C 1455.558594 2104.289062 1462.851562 2106.78125 1470.417969 2111.117188 C 1482.6875 2117.945312 1495.511719 2129.292969 1508.613281 2143.132812 C 1542.109375 2178.472656 1576.710938 2229.589844 1603.839844 2264.003906 C 1617.867188 2281.902344 1630.226562 2295.375 1639.269531 2300.359375 C 1644.714844 2303.402344 1649.328125 2303.679688 1653.113281 2301.925781 C 1656.800781 2300.082031 1659.476562 2296.207031 1660.492188 2290.207031 C 1662.246094 2279.875 1659.386719 2261.882812 1654.128906 2239.738281 C 1644.164062 2197.109375 1625.796875 2138.152344 1618.972656 2089.988281 C 1616.386719 2071.164062 1615.464844 2054.003906 1617.769531 2040.164062 C 1619.15625 2031.582031 1621.738281 2024.292969 1625.984375 2018.941406 C 1630.226562 2013.589844 1636.78125 2009.4375 1644.808594 2006.207031 C 1657.820312 2000.949219 1674.703125 1997.996094 1693.710938 1996.335938 C 1742.246094 1992.183594 1803.695312 1996.980469 1847.523438 1997.257812 C 1870.316406 1997.441406 1888.496094 1996.152344 1898.089844 1992.183594 C 1903.808594 1989.875 1906.949219 1986.371094 1907.871094 1982.402344 C 1908.796875 1978.34375 1907.410156 1973.914062 1903.347656 1969.300781 C 1896.429688 1961.550781 1880.558594 1952.507812 1859.980469 1942.820312 C 1820.398438 1923.996094 1762.914062 1901.667969 1720.929688 1876.847656 C 1704.601562 1867.160156 1690.664062 1857.195312 1681.253906 1846.769531 C 1675.351562 1840.308594 1671.289062 1833.851562 1669.816406 1827.117188 C 1668.242188 1820.472656 1669.074219 1812.8125 1671.566406 1804.417969 C 1675.535156 1791.039062 1683.746094 1775.90625 1694.265625 1760.128906 C 1721.296875 1719.625 1763.375 1674.503906 1790.960938 1640.457031 C 1805.265625 1622.742188 1815.601562 1607.703125 1818.554688 1597.738281 C 1820.214844 1591.832031 1819.566406 1587.21875 1816.984375 1583.992188 C 1814.402344 1580.761719 1810.066406 1579.007812 1803.878906 1579.378906 C 1793.457031 1579.929688 1776.570312 1586.757812 1756.085938 1596.722656 C 1716.683594 1616.007812 1663.445312 1647.007812 1617.867188 1664.355469 C 1600.148438 1671.089844 1583.632812 1675.703125 1569.605469 1676.628906 C 1560.933594 1677.179688 1553.277344 1676.257812 1547.09375 1673.304688 C 1540.910156 1670.355469 1535.46875 1664.910156 1530.484375 1657.804688 C 1522.453125 1646.269531 1515.8125 1630.492188 1510 1612.316406 C 1495.144531 1566 1486.195312 1504.917969 1476.691406 1462.195312 C 1471.707031 1439.960938 1466.542969 1422.523438 1460.449219 1413.941406 C 1456.941406 1408.957031 1452.882812 1406.652344 1448.734375 1406.652344 Z M 1448.734375 1415.695312 C 1449.5625 1415.695312 1450.394531 1416.246094 1451.132812 1416.984375 C 1452.605469 1418.277344 1453.902344 1420.308594 1455.191406 1422.796875 C 1459.804688 1431.5625 1463.863281 1446.234375 1467.832031 1464.136719 C 1479 1514.421875 1489.515625 1589.710938 1509.449219 1637.414062 C 1518.492188 1659.003906 1529.652344 1674.96875 1543.125 1681.519531 C 1556.6875 1688.066406 1576.160156 1686.777344 1598.671875 1680.316406 C 1648.402344 1666.203125 1713.828125 1627.539062 1760.144531 1604.933594 C 1776.570312 1596.816406 1790.5 1590.820312 1800.285156 1588.972656 C 1803.050781 1588.417969 1805.453125 1588.234375 1807.386719 1588.511719 C 1808.402344 1588.695312 1809.328125 1588.972656 1809.878906 1589.621094 C 1810.433594 1590.265625 1810.433594 1591.1875 1810.339844 1592.292969 C 1810.25 1594.234375 1809.511719 1596.445312 1808.402344 1599.03125 C 1804.339844 1608.164062 1795.390625 1620.4375 1783.859375 1634.738281 C 1751.5625 1674.78125 1699.246094 1729.957031 1674.429688 1775.261719 C 1663.167969 1795.746094 1657.542969 1814.476562 1660.859375 1829.144531 C 1664.277344 1843.816406 1677.378906 1858.300781 1696.480469 1871.867188 C 1738.460938 1901.945312 1809.511719 1928.886719 1856.105469 1951.03125 C 1872.621094 1958.875 1886 1965.980469 1893.570312 1972.53125 C 1895.785156 1974.375 1897.351562 1976.035156 1898.367188 1977.695312 C 1898.917969 1978.621094 1899.195312 1979.542969 1899.011719 1980.375 C 1898.828125 1981.203125 1898.183594 1981.847656 1897.261719 1982.402344 C 1895.6875 1983.511719 1893.476562 1984.339844 1890.707031 1985.078125 C 1881.113281 1987.660156 1865.890625 1988.308594 1847.617188 1988.214844 C 1796.035156 1987.847656 1720.375 1981.386719 1669.441406 1990.246094 C 1646.375 1994.214844 1628.292969 2001.503906 1618.878906 2013.3125 C 1609.46875 2025.03125 1606.421875 2044.316406 1607.621094 2067.65625 C 1610.390625 2119.328125 1633.550781 2191.667969 1645.269531 2241.859375 C 1649.515625 2259.667969 1652.28125 2274.613281 1651.910156 2284.578125 C 1651.820312 2287.347656 1651.449219 2289.746094 1650.710938 2291.5 C 1650.34375 2292.515625 1649.882812 2293.34375 1649.144531 2293.714844 C 1648.316406 2294.082031 1647.480469 2293.898438 1646.46875 2293.621094 C 1644.53125 2293.066406 1642.5 2291.867188 1640.289062 2290.207031 C 1632.257812 2284.210938 1622.296875 2272.769531 1610.945312 2258.375 C 1579.113281 2217.871094 1536.945312 2154.667969 1498.28125 2120.34375 C 1480.75 2104.84375 1463.773438 2095.246094 1448.734375 2095.246094 C 1433.691406 2095.246094 1416.714844 2104.84375 1399.183594 2120.34375 C 1360.519531 2154.667969 1318.351562 2217.871094 1286.519531 2258.375 C 1275.167969 2272.769531 1265.207031 2284.210938 1257.175781 2290.207031 C 1254.964844 2291.867188 1252.933594 2293.066406 1250.996094 2293.621094 C 1249.984375 2293.898438 1249.152344 2294.082031 1248.320312 2293.714844 C 1247.582031 2293.34375 1247.121094 2292.515625 1246.753906 2291.5 C 1246.015625 2289.746094 1245.644531 2287.347656 1245.554688 2284.578125 C 1245.183594 2274.613281 1247.949219 2259.667969 1252.195312 2241.859375 C 1263.914062 2191.667969 1287.074219 2119.328125 1289.84375 2067.65625 C 1291.042969 2044.316406 1288 2025.03125 1278.585938 2013.3125 C 1269.171875 2001.503906 1251.089844 1994.214844 1228.023438 1990.246094 C 1177.089844 1981.386719 1101.429688 1987.847656 1049.847656 1988.214844 C 1031.574219 1988.308594 1016.351562 1987.660156 1006.757812 1985.078125 C 1003.988281 1984.339844 1001.777344 1983.511719 1000.203125 1982.402344 C 999.28125 1981.847656 998.636719 1981.203125 998.453125 1980.375 C 998.269531 1979.542969 998.546875 1978.621094 999.097656 1977.695312 C 1000.113281 1976.035156 1001.683594 1974.375 1003.894531 1972.53125 C 1011.464844 1965.980469 1024.84375 1958.875 1041.359375 1951.03125 C 1087.953125 1928.886719 1159.003906 1901.945312 1200.984375 1871.867188 C 1220.085938 1858.300781 1233.1875 1843.816406 1236.605469 1829.144531 C 1239.921875 1814.476562 1234.296875 1795.746094 1223.035156 1775.261719 C 1198.21875 1729.957031 1145.902344 1674.78125 1113.605469 1634.738281 C 1102.074219 1620.4375 1093.125 1608.164062 1089.0625 1599.03125 C 1087.953125 1596.445312 1087.214844 1594.234375 1087.125 1592.292969 C 1087.03125 1591.1875 1087.125 1590.265625 1087.585938 1589.621094 C 1088.136719 1588.972656 1089.0625 1588.695312 1090.078125 1588.511719 C 1092.011719 1588.234375 1094.414062 1588.417969 1097.183594 1588.972656 C 1106.964844 1590.820312 1120.894531 1596.816406 1137.320312 1604.933594 C 1183.636719 1627.539062 1249.0625 1666.203125 1298.792969 1680.316406 C 1321.304688 1686.777344 1340.777344 1688.066406 1354.339844 1681.519531 C 1367.8125 1674.96875 1378.972656 1659.003906 1388.019531 1637.414062 C 1407.949219 1589.710938 1418.46875 1514.421875 1429.632812 1464.136719 C 1433.601562 1446.234375 1437.660156 1431.5625 1442.273438 1422.796875 C 1443.5625 1420.308594 1444.859375 1418.277344 1446.332031 1416.984375 C 1447.070312 1416.246094 1447.902344 1415.695312 1448.734375 1415.695312 Z M 1448.734375 1415.695312 " fill-opacity="1" fill-rule="evenodd"/><g clip-path="url(#a26b329771)"><g clip-path="url(#d3ea7ce68a)"><path fill="#353535" d="M 2869.859375 592.425781 L 3073.914062 592.425781 L 3073.914062 1680.445312 L 2869.859375 1680.445312 Z M 2869.859375 592.425781 " fill-opacity="1" fill-rule="nonzero"/></g></g><g clip-path="url(#5a418f0506)"><g clip-path="url(#d038f81d6e)"><path fill="#353535" d="M 3067.730469 1127.292969 L 3472.746094 1127.292969 L 3472.746094 1679.441406 L 3067.730469 1679.441406 Z M 3067.730469 1127.292969 " fill-opacity="1" fill-rule="nonzero"/></g></g><g clip-path="url(#9af4ccf65a)"><g clip-path="url(#b5bcaf4194)"><path fill="#353535" d="M 3502.117188 1087.101562 L 3877.761719 1087.101562 L 3877.761719 1562.523438 L 3502.117188 1562.523438 Z M 3502.117188 1087.101562 " fill-opacity="1" fill-rule="nonzero"/></g></g><g clip-path="url(#00a7acd971)"><g clip-path="url(#12c85a25e2)"><path fill="#353535" d="M 3944.234375 1088.644531 L 4542.484375 1088.644531 L 4542.484375 1836.457031 L 3944.234375 1836.457031 Z M 3944.234375 1088.644531 " fill-opacity="1" fill-rule="nonzero"/></g></g></svg>