<svg xmlns="http://www.w3.org/2000/svg" xmlns:xlink="http://www.w3.org/1999/xlink" width="6912" zoomAndPan="magnify" viewBox="0 0 5184 2592.000001" height="3456" preserveAspectRatio="xMidYMid meet" version="1.0"><defs><filter x="0%" y="0%" width="100%" height="100%" id="1b1fa8ec2f"><feColorMatrix values="0 0 0 0 1 0 0 0 0 1 0 0 0 0 1 0 0 0 1 0" color-interpolation-filters="sRGB"/></filter><clipPath id="3e7f9ac19a"><path d="M 1221 1038.308594 L 1840 1038.308594 L 1840 2240 L 1221 2240 Z M 1221 1038.308594 " clip-rule="nonzero"/></clipPath><clipPath id="3214d001a9"><path d="M 1253.511719 1345.101562 C 1309.207031 1285.429688 1327.109375 1299.351562 1339.042969 1325.210938 C 1384.792969 1424.664062 1370.867188 2094.980469 1341.03125 2196.425781 C 1335.066406 2220.292969 1327.109375 2232.226562 1315.175781 2238.195312 C 1305.230469 2242.171875 1283.347656 2238.195312 1273.402344 2230.238281 C 1263.457031 2224.269531 1259.480469 2214.324219 1253.511719 2196.425781 C 1237.601562 2138.742188 1239.589844 1939.832031 1247.546875 1818.5 C 1253.511719 1701.144531 1265.449219 1583.789062 1291.304688 1478.367188 C 1315.175781 1380.902344 1352.964844 1275.484375 1394.738281 1203.875 C 1426.5625 1150.171875 1462.367188 1100.445312 1502.148438 1074.585938 C 1533.972656 1052.707031 1573.753906 1040.773438 1601.601562 1038.785156 C 1621.492188 1038.785156 1633.425781 1042.761719 1651.328125 1050.71875 C 1681.164062 1066.628906 1726.914062 1110.390625 1754.757812 1144.203125 C 1782.605469 1176.03125 1804.488281 1205.867188 1818.410156 1247.636719 C 1834.324219 1299.351562 1846.257812 1376.925781 1836.3125 1434.609375 C 1828.355469 1486.324219 1802.496094 1534.0625 1770.671875 1579.8125 C 1734.867188 1629.539062 1679.175781 1677.277344 1629.449219 1719.046875 C 1581.710938 1758.828125 1524.027344 1796.621094 1476.289062 1824.46875 C 1436.507812 1846.347656 1392.75 1872.207031 1364.902344 1876.183594 C 1348.988281 1880.160156 1335.066406 1878.171875 1327.109375 1872.207031 C 1317.164062 1866.238281 1309.207031 1850.324219 1309.207031 1838.390625 C 1309.207031 1828.445312 1317.164062 1812.535156 1327.109375 1806.566406 C 1339.042969 1800.597656 1364.902344 1802.589844 1374.847656 1810.542969 C 1384.792969 1816.511719 1390.757812 1834.414062 1388.769531 1844.359375 C 1388.769531 1856.292969 1376.835938 1870.214844 1368.878906 1874.195312 C 1358.933594 1880.160156 1341.03125 1880.160156 1331.085938 1874.195312 C 1321.140625 1870.214844 1311.195312 1854.304688 1309.207031 1844.359375 C 1309.207031 1832.425781 1313.183594 1822.480469 1325.121094 1808.554688 C 1358.933594 1766.785156 1557.839844 1675.289062 1623.480469 1621.582031 C 1661.273438 1589.757812 1683.152344 1565.886719 1705.03125 1536.050781 C 1724.921875 1506.214844 1742.824219 1478.367188 1752.769531 1442.566406 C 1762.714844 1400.796875 1766.695312 1349.078125 1754.757812 1303.332031 C 1742.824219 1255.59375 1703.042969 1197.910156 1669.230469 1166.085938 C 1645.359375 1142.214844 1613.535156 1118.347656 1585.6875 1122.324219 C 1555.851562 1124.3125 1522.039062 1160.117188 1496.179688 1191.941406 C 1464.355469 1231.722656 1436.507812 1291.394531 1414.628906 1345.101562 C 1390.757812 1402.785156 1374.847656 1456.488281 1360.921875 1528.09375 C 1341.03125 1623.570312 1329.097656 1762.804688 1323.128906 1876.183594 C 1317.164062 1981.605469 1352.964844 2144.707031 1321.140625 2182.5 C 1307.21875 2200.402344 1277.382812 2208.359375 1261.46875 2196.425781 C 1201.796875 2150.675781 1213.730469 1406.761719 1261.46875 1317.253906 C 1273.402344 1293.386719 1291.304688 1285.429688 1305.230469 1285.429688 C 1317.164062 1287.417969 1339.042969 1309.296875 1339.042969 1325.210938 C 1341.03125 1345.101562 1313.183594 1388.859375 1297.273438 1392.839844 C 1287.328125 1396.816406 1271.414062 1388.859375 1263.457031 1380.902344 C 1255.503906 1372.949219 1253.511719 1345.101562 1253.511719 1345.101562 " clip-rule="nonzero"/></clipPath><clipPath id="d184e8080a"><path d="M 1663 1806 L 2006.65625 1806 L 2006.65625 2208 L 1663 2208 Z M 1663 1806 " clip-rule="nonzero"/></clipPath><clipPath id="947b637d56"><path d="M 1677.1875 1846.347656 C 1766.695312 1856.292969 1768.683594 1868.226562 1774.648438 1886.128906 C 1788.574219 1927.898438 1792.550781 2067.132812 1790.5625 2120.839844 C 1788.574219 2150.675781 1788.574219 2174.542969 1778.628906 2188.46875 C 1772.660156 2200.402344 1758.738281 2208.359375 1746.804688 2206.371094 C 1732.878906 2204.382812 1711 2186.480469 1707.023438 2164.597656 C 1697.078125 2118.851562 1762.714844 1987.570312 1798.519531 1929.886719 C 1822.386719 1888.117188 1848.246094 1858.28125 1882.058594 1838.390625 C 1911.898438 1820.488281 1965.601562 1800.597656 1985.492188 1810.542969 C 1999.414062 1818.5 2007.371094 1848.335938 2003.394531 1860.269531 C 2001.40625 1872.207031 1979.523438 1886.128906 1965.601562 1886.128906 C 1955.65625 1888.117188 1939.742188 1878.171875 1933.777344 1868.226562 C 1927.808594 1858.28125 1929.796875 1830.433594 1935.765625 1820.488281 C 1943.722656 1812.535156 1959.632812 1804.578125 1971.570312 1806.566406 C 1983.503906 1810.542969 2003.394531 1828.445312 2005.382812 1840.378906 C 2009.359375 1852.316406 2001.40625 1868.226562 1993.449219 1876.183594 C 1985.492188 1884.140625 1967.589844 1888.117188 1957.644531 1886.128906 C 1947.699219 1882.152344 1933.777344 1872.207031 1929.796875 1860.269531 C 1925.820312 1850.324219 1929.796875 1824.46875 1939.742188 1816.511719 C 1949.6875 1808.554688 1981.515625 1808.554688 1993.449219 1816.511719 C 2003.394531 1824.46875 2009.359375 1850.324219 2003.394531 1860.269531 C 1997.425781 1872.207031 1971.570312 1868.226562 1951.679688 1882.152344 C 1919.851562 1904.03125 1874.105469 1953.757812 1844.269531 2001.496094 C 1810.453125 2057.191406 1794.542969 2182.5 1764.703125 2202.390625 C 1752.769531 2210.347656 1738.847656 2208.359375 1728.902344 2202.390625 C 1718.957031 2198.414062 1711 2190.457031 1707.023438 2172.554688 C 1695.085938 2130.785156 1754.757812 1937.84375 1726.914062 1908.007812 C 1714.976562 1892.097656 1673.207031 1915.964844 1665.25 1904.03125 C 1657.296875 1894.085938 1677.1875 1846.347656 1677.1875 1846.347656 " clip-rule="nonzero"/></clipPath><clipPath id="abdf60f8ef"><path d="M 2054 1750 L 2416 1750 L 2416 2202.53125 L 2054 2202.53125 Z M 2054 1750 " clip-rule="nonzero"/></clipPath><clipPath id="d33b686f00"><path d="M 2168.488281 1898.0625 C 2156.550781 2087.027344 2158.542969 2106.917969 2168.488281 2116.863281 C 2178.433594 2124.816406 2194.34375 2128.796875 2208.269531 2124.816406 C 2234.125 2116.863281 2281.863281 2073.101562 2301.753906 2035.308594 C 2325.625 1997.515625 2341.535156 1931.878906 2337.558594 1898.0625 C 2335.570312 1876.183594 2325.625 1858.28125 2313.691406 1846.347656 C 2303.742188 1836.402344 2285.84375 1830.433594 2269.929688 1830.433594 C 2254.015625 1828.445312 2234.125 1832.425781 2216.226562 1842.371094 C 2194.34375 1858.28125 2166.5 1884.140625 2152.574219 1917.953125 C 2134.671875 1959.726562 2156.550781 2061.167969 2136.660156 2087.027344 C 2126.714844 2100.949219 2102.847656 2106.917969 2090.914062 2102.9375 C 2078.980469 2098.960938 2065.054688 2077.082031 2063.066406 2065.144531 C 2063.066406 2053.210938 2071.023438 2037.296875 2080.96875 2031.332031 C 2092.902344 2025.363281 2118.761719 2027.351562 2128.707031 2035.308594 C 2138.652344 2043.265625 2144.617188 2059.179688 2142.628906 2071.113281 C 2140.640625 2083.046875 2120.75 2104.925781 2108.816406 2104.925781 C 2094.890625 2104.925781 2073.011719 2087.027344 2063.066406 2069.125 C 2051.132812 2043.265625 2053.121094 1991.550781 2061.078125 1951.769531 C 2071.023438 1908.007812 2096.878906 1856.292969 2122.738281 1822.480469 C 2142.628906 1796.621094 2166.5 1774.742188 2196.335938 1762.804688 C 2224.179688 1750.871094 2263.960938 1746.894531 2295.789062 1754.851562 C 2327.613281 1762.804688 2365.40625 1784.6875 2385.296875 1810.542969 C 2405.1875 1838.390625 2417.121094 1878.171875 2415.132812 1919.945312 C 2413.144531 1977.625 2377.339844 2069.125 2345.515625 2114.871094 C 2321.644531 2148.6875 2291.808594 2170.566406 2261.972656 2184.492188 C 2232.136719 2198.414062 2188.378906 2206.371094 2160.53125 2200.402344 C 2138.652344 2196.425781 2120.75 2186.480469 2106.824219 2166.589844 C 2086.933594 2136.753906 2076.988281 2069.125 2075 2021.386719 C 2073.011719 1971.660156 2075 1900.050781 2092.902344 1876.183594 C 2104.835938 1862.261719 2130.695312 1854.304688 2144.617188 1860.269531 C 2156.550781 1864.25 2168.488281 1898.0625 2168.488281 1898.0625 " clip-rule="nonzero"/></clipPath><mask id="ba042e8382"><g filter="url(#1b1fa8ec2f)"><rect x="-518.4" width="6220.8" fill="#000000" y="-259.2" height="3110.400001" fill-opacity="0.89"/></g></mask><clipPath id="513bc3e318"><path d="M 123 146 L 1553 146 L 1553 1465 L 123 1465 Z M 123 146 " clip-rule="nonzero"/></clipPath><clipPath id="146ea5fac5"><path d="M 0.273438 319.195312 L 1281.433594 -49.511719 L 1623.535156 1139.195312 L 342.371094 1507.902344 Z M 0.273438 319.195312 " clip-rule="nonzero"/></clipPath><clipPath id="0e55cd1043"><path d="M 0.273438 319.195312 L 1281.433594 -49.511719 L 1623.535156 1139.195312 L 342.371094 1507.902344 Z M 0.273438 319.195312 " clip-rule="nonzero"/></clipPath><clipPath id="6c028375f0"><path d="M 0.273438 319.195312 L 1281.433594 -49.511719 L 1623.535156 1139.195312 L 342.371094 1507.902344 Z M 0.273438 319.195312 " clip-rule="nonzero"/></clipPath><clipPath id="ed607e9a9f"><path d="M 115 83 L 1596 83 L 1596 1425 L 115 1425 Z M 115 83 " clip-rule="nonzero"/></clipPath><clipPath id="6f46f3e43c"><path d="M 0.273438 319.195312 L 1281.433594 -49.511719 L 1623.535156 1139.195312 L 342.371094 1507.902344 Z M 0.273438 319.195312 " clip-rule="nonzero"/></clipPath><clipPath id="59da06dec2"><path d="M 0.273438 319.195312 L 1281.433594 -49.511719 L 1623.535156 1139.195312 L 342.371094 1507.902344 Z M 0.273438 319.195312 " clip-rule="nonzero"/></clipPath><clipPath id="9ee0ec31bf"><path d="M 0.273438 319.195312 L 1281.433594 -49.511719 L 1623.535156 1139.195312 L 342.371094 1507.902344 Z M 0.273438 319.195312 " clip-rule="nonzero"/></clipPath><clipPath id="f958b4775e"><path d="M 66 54 L 1323 54 L 1323 623 L 66 623 Z M 66 54 " clip-rule="nonzero"/></clipPath><clipPath id="df4d7ebc61"><path d="M 0.273438 319.195312 L 1281.433594 -49.511719 L 1623.535156 1139.195312 L 342.371094 1507.902344 Z M 0.273438 319.195312 " clip-rule="nonzero"/></clipPath><clipPath id="5c5179bc3d"><path d="M 0.273438 319.195312 L 1281.433594 -49.511719 L 1623.535156 1139.195312 L 342.371094 1507.902344 Z M 0.273438 319.195312 " clip-rule="nonzero"/></clipPath><clipPath id="c1acdfb382"><path d="M 0.273438 319.195312 L 1281.433594 -49.511719 L 1623.535156 1139.195312 L 342.371094 1507.902344 Z M 0.273438 319.195312 " clip-rule="nonzero"/></clipPath><clipPath id="b3a79df00b"><rect x="0" width="1626" y="0" height="1515"/></clipPath><clipPath id="255e1181a0"><path d="M 2453.050781 1852.003906 L 2701.902344 1852.003906 L 2701.902344 2558.933594 L 2453.050781 2558.933594 Z M 2453.050781 1852.003906 " clip-rule="nonzero"/></clipPath><clipPath id="dd6c50cb63"><path d="M 2657.800781 1882.152344 C 2713.492188 2264.054688 2707.527344 2387.375 2687.636719 2453.015625 C 2673.710938 2494.785156 2653.820312 2528.601562 2633.929688 2544.511719 C 2620.007812 2556.445312 2604.09375 2560.425781 2586.191406 2558.4375 C 2570.28125 2556.445312 2550.390625 2548.492188 2532.488281 2532.578125 C 2506.628906 2508.710938 2474.804688 2453.015625 2462.871094 2405.277344 C 2448.945312 2351.574219 2452.925781 2258.085938 2462.871094 2224.273438 C 2468.835938 2208.359375 2476.792969 2198.414062 2486.738281 2194.4375 C 2496.683594 2188.46875 2514.585938 2190.457031 2522.542969 2196.425781 C 2532.488281 2202.390625 2542.433594 2216.316406 2542.433594 2228.25 C 2542.433594 2238.195312 2536.464844 2254.109375 2526.519531 2262.0625 C 2518.5625 2268.03125 2500.664062 2272.007812 2490.71875 2268.03125 C 2480.773438 2264.054688 2466.847656 2252.117188 2464.859375 2240.183594 C 2460.882812 2230.238281 2464.859375 2212.335938 2472.816406 2204.382812 C 2480.773438 2194.4375 2506.628906 2190.457031 2518.5625 2194.4375 C 2530.5 2198.414062 2536.464844 2208.359375 2542.433594 2224.273438 C 2552.378906 2254.109375 2532.488281 2343.617188 2538.453125 2381.410156 C 2542.433594 2403.289062 2546.410156 2417.210938 2556.355469 2431.136719 C 2566.300781 2445.058594 2588.183594 2466.9375 2600.117188 2460.972656 C 2623.984375 2451.027344 2631.941406 2319.746094 2631.941406 2236.207031 C 2631.941406 2132.773438 2562.324219 1947.789062 2580.226562 1892.097656 C 2586.191406 1870.214844 2602.105469 1854.304688 2614.039062 1852.316406 C 2627.964844 1850.324219 2657.800781 1882.152344 2657.800781 1882.152344 " clip-rule="nonzero"/></clipPath><clipPath id="620aa5ab78"><path d="M 2621.40625 1614.085938 L 2725.761719 1614.085938 L 2725.761719 1696.816406 L 2621.40625 1696.816406 Z M 2621.40625 1614.085938 " clip-rule="nonzero"/></clipPath><clipPath id="f76850b5c3"><path d="M 2659.789062 1615.613281 C 2717.472656 1627.550781 2725.429688 1643.460938 2725.429688 1653.40625 C 2725.429688 1665.34375 2715.480469 1681.253906 2707.527344 1687.222656 C 2697.582031 1693.1875 2679.679688 1695.179688 2669.734375 1691.199219 C 2659.789062 1687.222656 2647.855469 1673.296875 2645.863281 1663.351562 C 2643.875 1651.417969 2647.855469 1635.507812 2655.808594 1627.550781 C 2663.765625 1619.59375 2679.679688 1611.636719 2691.613281 1615.613281 C 2703.546875 1617.605469 2721.449219 1637.496094 2725.429688 1649.429688 C 2727.417969 1661.363281 2719.460938 1677.277344 2711.503906 1685.234375 C 2701.558594 1693.1875 2677.691406 1699.15625 2663.765625 1695.179688 C 2649.84375 1691.199219 2621.996094 1665.34375 2621.996094 1653.40625 C 2623.984375 1639.484375 2659.789062 1615.613281 2659.789062 1615.613281 " clip-rule="nonzero"/></clipPath><clipPath id="a8bf1724cb"><path d="M 2925 1695 L 3280.378906 1695 L 3280.378906 2194.4375 L 2925 2194.4375 Z M 2925 1695 " clip-rule="nonzero"/></clipPath><clipPath id="a446f77b51"><path d="M 3005.886719 1884.140625 C 3035.722656 1937.84375 3055.613281 1925.910156 3067.546875 1911.988281 C 3087.4375 1888.117188 3123.242188 1808.554688 3113.296875 1792.640625 C 3109.320312 1782.695312 3083.460938 1780.707031 3073.515625 1786.675781 C 3055.613281 1796.621094 3043.679688 1840.378906 3035.722656 1872.207031 C 3025.777344 1910 3025.777344 1963.703125 3029.757812 2003.484375 C 3031.746094 2037.296875 3033.734375 2077.082031 3051.636719 2094.980469 C 3069.539062 2112.882812 3103.351562 2122.828125 3131.199219 2116.863281 C 3167.003906 2110.894531 3216.730469 2033.320312 3244.574219 2037.296875 C 3260.488281 2039.289062 3280.378906 2067.136719 3280.378906 2081.058594 C 3280.378906 2092.992188 3258.5 2112.882812 3246.566406 2114.871094 C 3236.621094 2118.851562 3218.71875 2110.894531 3210.761719 2102.9375 C 3204.792969 2094.980469 3198.828125 2077.082031 3202.804688 2067.136719 C 3204.792969 2057.191406 3216.730469 2043.265625 3226.675781 2039.289062 C 3236.621094 2035.308594 3254.519531 2035.308594 3264.464844 2043.265625 C 3274.414062 2051.222656 3282.367188 2073.101562 3278.390625 2089.015625 C 3272.421875 2116.863281 3222.695312 2164.597656 3184.902344 2180.511719 C 3141.144531 2198.414062 3063.570312 2198.414062 3029.757812 2182.5 C 3005.886719 2174.546875 2993.953125 2154.652344 2982.019531 2134.761719 C 2968.09375 2108.90625 2958.148438 2077.082031 2952.183594 2041.277344 C 2946.214844 1993.539062 2946.214844 1929.890625 2954.171875 1880.160156 C 2960.136719 1838.390625 2966.105469 1794.632812 2987.984375 1762.804688 C 3013.84375 1730.980469 3067.546875 1693.1875 3101.363281 1695.179688 C 3133.1875 1695.179688 3172.96875 1730.980469 3186.894531 1750.871094 C 3194.847656 1764.796875 3192.859375 1776.730469 3192.859375 1792.640625 C 3194.847656 1814.523438 3196.839844 1846.347656 3184.902344 1874.195312 C 3168.992188 1913.976562 3119.265625 1979.617188 3087.4375 1999.507812 C 3069.539062 2011.441406 3051.636719 2015.417969 3033.734375 2013.429688 C 3009.863281 2011.441406 2972.074219 1993.539062 2954.171875 1979.617188 C 2942.238281 1967.679688 2934.28125 1955.746094 2930.300781 1939.835938 C 2924.335938 1919.941406 2922.347656 1874.195312 2934.28125 1858.28125 C 2944.226562 1846.347656 2972.074219 1840.378906 2984.007812 1844.359375 C 2995.941406 1850.324219 3005.886719 1884.140625 3005.886719 1884.140625 " clip-rule="nonzero"/></clipPath><clipPath id="4050a726f7"><path d="M 3415 1701 L 3834 1701 L 3834 2151 L 3415 2151 Z M 3415 1701 " clip-rule="nonzero"/></clipPath><clipPath id="b533589f9a"><path d="M 3698.085938 1802.589844 C 3676.203125 1860.269531 3660.292969 1866.238281 3648.359375 1862.261719 C 3626.476562 1856.292969 3602.609375 1786.675781 3578.742188 1784.6875 C 3558.851562 1784.6875 3532.992188 1824.46875 3519.066406 1850.324219 C 3503.15625 1880.160156 3491.222656 1921.933594 3495.199219 1957.734375 C 3497.1875 1993.539062 3517.078125 2045.253906 3538.960938 2063.15625 C 3552.882812 2075.089844 3570.785156 2077.082031 3594.652344 2071.113281 C 3638.414062 2061.167969 3729.910156 1957.734375 3771.679688 1945.800781 C 3791.570312 1939.835938 3809.472656 1941.824219 3819.417969 1949.78125 C 3829.363281 1957.734375 3835.332031 1975.636719 3833.34375 1985.582031 C 3829.363281 1997.515625 3811.460938 2017.40625 3797.539062 2019.398438 C 3787.59375 2021.386719 3769.691406 2015.417969 3763.722656 2005.472656 C 3755.769531 1995.527344 3753.777344 1967.679688 3759.746094 1957.734375 C 3767.703125 1947.789062 3793.5625 1937.84375 3805.496094 1941.824219 C 3817.429688 1947.789062 3835.332031 1973.648438 3831.351562 1993.539062 C 3821.40625 2031.332031 3710.019531 2102.9375 3664.269531 2128.796875 C 3638.414062 2142.71875 3620.511719 2150.675781 3592.664062 2150.675781 C 3560.839844 2150.675781 3505.144531 2134.761719 3479.285156 2116.863281 C 3461.386719 2104.925781 3453.429688 2091.003906 3443.484375 2069.125 C 3429.558594 2039.289062 3415.636719 1993.539062 3415.636719 1951.769531 C 3415.636719 1906.019531 3433.539062 1848.335938 3451.441406 1808.554688 C 3467.351562 1774.742188 3493.210938 1740.925781 3515.089844 1723.023438 C 3527.023438 1711.089844 3538.960938 1703.132812 3554.871094 1701.144531 C 3580.730469 1701.144531 3628.46875 1719.046875 3652.335938 1738.9375 C 3674.214844 1760.816406 3698.085938 1806.566406 3696.097656 1826.457031 C 3696.097656 1840.378906 3686.152344 1852.316406 3676.203125 1858.28125 C 3666.261719 1864.25 3648.359375 1864.25 3638.414062 1860.269531 C 3628.46875 1854.304688 3620.511719 1842.371094 3616.53125 1830.433594 C 3614.542969 1814.523438 3620.511719 1780.707031 3632.445312 1768.773438 C 3642.390625 1760.816406 3666.261719 1756.839844 3676.203125 1762.808594 C 3688.140625 1768.773438 3698.085938 1802.589844 3698.085938 1802.589844 " clip-rule="nonzero"/></clipPath><clipPath id="bf815f7d1e"><path d="M 3901.148438 1076 L 4067 1076 L 4067 2198 L 3901.148438 2198 Z M 3901.148438 1076 " clip-rule="nonzero"/></clipPath><clipPath id="b6989ae27d"><path d="M 3916.882812 1160.117188 C 3952.6875 1072.597656 3970.589844 1074.585938 3980.535156 1078.566406 C 3990.480469 1082.542969 3996.445312 1090.5 4002.414062 1108.402344 C 4030.261719 1189.953125 3992.46875 1697.167969 4002.414062 1860.269531 C 4006.390625 1937.84375 4010.371094 1979.617188 4022.304688 2033.320312 C 4032.25 2081.058594 4070.042969 2138.742188 4066.0625 2166.589844 C 4062.085938 2180.511719 4054.128906 2192.445312 4042.195312 2196.425781 C 4030.261719 2200.402344 4004.402344 2194.4375 3996.445312 2184.488281 C 3988.488281 2176.535156 3984.511719 2158.632812 3988.488281 2148.6875 C 3990.480469 2138.742188 4002.414062 2122.828125 4014.347656 2120.839844 C 4026.28125 2118.851562 4060.097656 2136.753906 4064.074219 2148.6875 C 4068.054688 2160.621094 4058.109375 2186.480469 4046.171875 2194.4375 C 4036.226562 2200.402344 4012.359375 2198.414062 3998.433594 2188.46875 C 3980.535156 2176.535156 3968.597656 2140.730469 3958.652344 2108.90625 C 3944.730469 2069.125 3936.773438 2033.320312 3930.808594 1965.691406 C 3914.894531 1800.597656 3877.101562 1207.855469 3924.839844 1112.378906 C 3936.773438 1086.519531 3958.652344 1074.585938 3970.589844 1076.574219 C 3984.511719 1076.574219 4000.425781 1100.445312 4004.402344 1116.359375 C 4006.390625 1140.226562 3988.488281 1191.941406 3974.566406 1201.886719 C 3964.621094 1209.84375 3946.71875 1205.867188 3936.773438 1199.898438 C 3926.828125 1193.929688 3916.882812 1160.117188 3916.882812 1160.117188 " clip-rule="nonzero"/></clipPath><clipPath id="938f54e500"><path d="M 3737.429688 1456.054688 L 4255.925781 1456.054688 L 4255.925781 1574 L 3737.429688 1574 Z M 3737.429688 1456.054688 " clip-rule="nonzero"/></clipPath><clipPath id="b304af79b4"><path d="M 3775.660156 1484.335938 C 4239.113281 1464.445312 4255.027344 1480.359375 4255.027344 1492.292969 C 4255.027344 1506.214844 4227.179688 1536.050781 4215.246094 1536.050781 C 4201.320312 1536.050781 4175.464844 1506.214844 4175.464844 1494.28125 C 4177.453125 1480.359375 4207.289062 1458.476562 4221.210938 1456.488281 C 4231.15625 1456.488281 4247.070312 1468.421875 4251.046875 1478.367188 C 4255.027344 1490.304688 4251.046875 1516.160156 4243.089844 1526.105469 C 4235.136719 1534.0625 4217.234375 1538.042969 4205.300781 1536.050781 C 4195.355469 1532.074219 4179.441406 1522.128906 4177.453125 1510.195312 C 4175.464844 1496.269531 4193.363281 1462.457031 4207.289062 1458.476562 C 4219.222656 1454.5 4243.089844 1464.445312 4249.058594 1474.390625 C 4255.027344 1486.324219 4257.015625 1508.203125 4247.070312 1520.140625 C 4231.15625 1540.03125 4169.496094 1545.996094 4115.789062 1553.953125 C 4028.273438 1565.886719 3821.40625 1587.769531 3769.691406 1561.910156 C 3749.800781 1551.964844 3735.878906 1534.0625 3737.867188 1520.140625 C 3737.867188 1508.203125 3775.660156 1484.335938 3775.660156 1484.335938 " clip-rule="nonzero"/></clipPath><clipPath id="f65468bcb8"><path d="M 4189 1718 L 4569 1718 L 4569 2211 L 4189 2211 Z M 4189 1718 " clip-rule="nonzero"/></clipPath><clipPath id="dffac76d5d"><path d="M 4384.316406 1782.695312 C 4270.9375 1882.152344 4314.699219 1900.050781 4344.535156 1908.007812 C 4382.328125 1921.933594 4449.957031 1900.050781 4485.757812 1917.953125 C 4517.582031 1935.855469 4539.464844 1975.636719 4551.398438 2007.460938 C 4563.332031 2035.308594 4571.289062 2073.101562 4567.3125 2100.949219 C 4561.34375 2120.839844 4549.410156 2138.742188 4533.496094 2154.652344 C 4517.582031 2172.554688 4487.746094 2190.457031 4467.855469 2200.402344 C 4451.945312 2206.371094 4442 2210.347656 4422.109375 2210.347656 C 4392.273438 2210.347656 4316.6875 2198.414062 4304.753906 2178.523438 C 4294.808594 2166.589844 4300.773438 2140.730469 4308.730469 2130.785156 C 4314.699219 2122.828125 4332.597656 2116.863281 4344.535156 2118.851562 C 4354.480469 2120.839844 4370.390625 2130.785156 4374.371094 2140.730469 C 4378.347656 2152.664062 4374.371094 2180.511719 4364.425781 2188.46875 C 4352.492188 2196.425781 4314.699219 2192.445312 4306.742188 2182.5 C 4298.785156 2172.554688 4296.796875 2144.707031 4306.742188 2134.761719 C 4322.65625 2116.863281 4410.171875 2136.753906 4440.007812 2126.808594 C 4459.902344 2118.851562 4473.824219 2108.90625 4481.78125 2094.980469 C 4487.746094 2083.046875 4487.746094 2063.15625 4481.78125 2045.253906 C 4473.824219 2023.375 4449.957031 1991.550781 4426.085938 1981.605469 C 4400.226562 1971.660156 4360.445312 1991.550781 4330.609375 1987.570312 C 4298.785156 1981.605469 4260.992188 1973.648438 4239.113281 1953.757812 C 4215.246094 1933.867188 4189.386719 1896.074219 4189.386719 1868.226562 C 4189.386719 1840.378906 4215.246094 1808.554688 4235.136719 1784.6875 C 4257.015625 1762.804688 4286.851562 1744.90625 4316.6875 1732.96875 C 4342.546875 1723.023438 4378.347656 1717.058594 4402.21875 1719.046875 C 4418.128906 1721.035156 4434.042969 1727.003906 4443.988281 1734.960938 C 4453.933594 1744.90625 4463.878906 1764.796875 4465.867188 1778.71875 C 4465.867188 1790.652344 4461.890625 1806.566406 4451.945312 1814.523438 C 4443.988281 1822.480469 4420.117188 1826.457031 4408.183594 1822.480469 C 4396.25 1816.511719 4384.316406 1782.695312 4384.316406 1782.695312 " clip-rule="nonzero"/></clipPath><clipPath id="81a7226879"><path d="M 788.511719 401 L 1655 401 L 1655 800.863281 L 788.511719 800.863281 Z M 788.511719 401 " clip-rule="nonzero"/></clipPath><clipPath id="a38b4c4236"><path d="M 869.621094 497.753906 C 891.5 577.320312 988.964844 495.765625 1030.738281 489.800781 C 1058.582031 487.808594 1080.464844 489.800781 1098.367188 501.734375 C 1116.265625 511.679688 1128.203125 535.546875 1138.148438 559.417969 C 1150.082031 585.273438 1152.070312 621.078125 1156.046875 654.890625 C 1158.039062 692.683594 1167.984375 748.378906 1158.039062 772.246094 C 1150.082031 788.160156 1134.167969 800.09375 1122.234375 800.09375 C 1108.3125 802.082031 1086.429688 784.183594 1080.464844 768.269531 C 1072.507812 748.378906 1090.410156 712.574219 1102.34375 682.738281 C 1116.265625 646.9375 1136.15625 607.15625 1164.003906 573.339844 C 1193.839844 533.558594 1249.535156 475.875 1281.359375 461.953125 C 1297.273438 452.007812 1313.183594 450.019531 1327.109375 453.996094 C 1343.019531 459.964844 1362.914062 477.863281 1374.847656 503.722656 C 1396.726562 547.480469 1410.648438 674.78125 1404.683594 716.554688 C 1402.695312 732.464844 1398.714844 742.410156 1390.757812 750.367188 C 1382.804688 756.335938 1364.902344 760.3125 1354.957031 756.335938 C 1345.011719 754.347656 1333.074219 744.402344 1329.097656 732.464844 C 1319.152344 704.617188 1333.074219 635 1347 593.230469 C 1360.921875 551.460938 1384.792969 509.691406 1412.640625 477.863281 C 1438.496094 448.027344 1474.300781 408.246094 1502.148438 402.28125 C 1522.039062 398.300781 1541.929688 404.269531 1559.832031 420.179688 C 1599.613281 459.964844 1663.261719 658.871094 1653.316406 710.585938 C 1651.328125 730.476562 1637.40625 744.402344 1625.46875 748.378906 C 1611.546875 752.355469 1585.6875 742.410156 1579.722656 730.476562 C 1573.753906 718.542969 1583.699219 680.75 1595.632812 674.78125 C 1607.566406 668.816406 1645.359375 680.75 1649.339844 692.683594 C 1655.304688 704.617188 1641.382812 740.421875 1629.449219 746.390625 C 1617.511719 752.355469 1595.632812 744.402344 1581.710938 734.457031 C 1563.808594 720.53125 1551.875 686.71875 1541.929688 654.890625 C 1526.015625 611.132812 1528.003906 493.777344 1508.113281 489.800781 C 1488.222656 485.820312 1448.441406 561.40625 1430.539062 603.175781 C 1408.660156 646.9375 1412.640625 730.476562 1390.757812 750.367188 C 1380.8125 758.324219 1364.902344 760.3125 1354.957031 756.335938 C 1345.011719 754.347656 1335.066406 746.390625 1329.097656 732.464844 C 1311.195312 698.652344 1323.128906 549.472656 1301.25 541.515625 C 1279.371094 535.546875 1229.644531 615.109375 1205.773438 654.890625 C 1181.90625 694.671875 1173.949219 758.324219 1154.058594 782.191406 C 1140.136719 794.128906 1124.222656 802.082031 1112.289062 800.09375 C 1100.355469 798.105469 1088.417969 786.171875 1080.464844 768.269531 C 1064.550781 736.445312 1084.441406 633.011719 1068.527344 601.1875 C 1058.582031 583.285156 1048.636719 573.339844 1032.726562 571.351562 C 1002.890625 567.371094 931.28125 625.054688 895.480469 633.011719 C 875.589844 638.980469 857.6875 640.96875 843.765625 636.992188 C 827.851562 633.011719 813.925781 625.054688 803.980469 609.144531 C 790.058594 583.285156 782.101562 497.753906 796.027344 473.886719 C 803.980469 461.953125 825.863281 452.007812 837.796875 455.984375 C 849.730469 457.972656 869.621094 497.753906 869.621094 497.753906 " clip-rule="nonzero"/></clipPath><clipPath id="539b277e70"><path d="M 1800 338 L 2124 338 L 2124 973 L 1800 973 Z M 1800 338 " clip-rule="nonzero"/></clipPath><clipPath id="a793581db8"><path d="M 1886.039062 420.179688 C 1901.953125 601.1875 1917.863281 589.253906 1931.789062 577.320312 C 1967.589844 543.503906 2017.316406 376.421875 2053.121094 350.5625 C 2069.035156 338.628906 2086.933594 338.628906 2096.878906 342.609375 C 2108.816406 346.585938 2114.78125 354.542969 2120.75 372.445312 C 2138.652344 442.0625 2076.988281 879.65625 2043.175781 945.296875 C 2035.21875 961.210938 2027.261719 967.175781 2015.328125 971.15625 C 2005.382812 973.144531 1987.480469 969.167969 1979.523438 963.199219 C 1971.570312 955.242188 1965.601562 939.328125 1965.601562 927.394531 C 1967.589844 917.449219 1977.535156 901.539062 1987.480469 897.558594 C 1997.425781 891.59375 2015.328125 891.59375 2025.273438 897.558594 C 2033.230469 901.539062 2045.164062 917.449219 2045.164062 927.394531 C 2045.164062 941.320312 2031.242188 963.199219 2019.304688 969.167969 C 2009.359375 975.132812 1991.460938 971.15625 1983.503906 965.1875 C 1973.558594 959.21875 1969.578125 951.265625 1965.601562 931.375 C 1953.667969 861.757812 2017.316406 487.808594 2043.175781 400.289062 C 2051.132812 368.464844 2057.097656 346.585938 2069.035156 340.617188 C 2078.980469 334.652344 2096.878906 340.617188 2106.824219 348.574219 C 2114.78125 354.542969 2120.75 364.488281 2120.75 382.390625 C 2118.761719 426.148438 2033.230469 577.320312 1989.46875 633.011719 C 1961.625 668.816406 1935.765625 702.628906 1907.917969 704.617188 C 1882.0625 706.609375 1848.246094 676.773438 1830.34375 652.902344 C 1812.441406 629.035156 1810.453125 593.230469 1806.476562 555.4375 C 1802.496094 511.679688 1792.550781 428.136719 1812.441406 402.28125 C 1822.386719 388.355469 1848.246094 380.398438 1860.179688 384.378906 C 1872.113281 386.367188 1886.039062 420.179688 1886.039062 420.179688 " clip-rule="nonzero"/></clipPath></defs><g clip-path="url(#3e7f9ac19a)"><g clip-path="url(#3214d001a9)"><path fill="#252525" d="M 1167.984375 959.21875 L 1917.863281 959.21875 L 1917.863281 2318.378906 L 1167.984375 2318.378906 Z M 1167.984375 959.21875 " fill-opacity="1" fill-rule="nonzero"/></g></g><g clip-path="url(#d184e8080a)"><g clip-path="url(#947b637d56)"><path fill="#252525" d="M 1585.6875 1727.003906 L 2086.933594 1727.003906 L 2086.933594 2286.988281 L 1585.6875 2286.988281 Z M 1585.6875 1727.003906 " fill-opacity="1" fill-rule="nonzero"/></g></g><g clip-path="url(#abdf60f8ef)"><g clip-path="url(#d33b686f00)"><path fill="#252525" d="M 1981.515625 1675.289062 L 2496.683594 1675.289062 L 2496.683594 2281.015625 L 1981.515625 2281.015625 Z M 1981.515625 1675.289062 " fill-opacity="1" fill-rule="nonzero"/></g></g><g mask="url(#ba042e8382)"><g transform="matrix(1, 0, 0, 1, 2294, -0.000000000000208807)"><g clip-path="url(#b3a79df00b)"><g clip-path="url(#513bc3e318)"><g clip-path="url(#146ea5fac5)"><g clip-path="url(#0e55cd1043)"><g clip-path="url(#6c028375f0)"><path fill="#d0b5c5" d="M 123.265625 416.800781 C 111.273438 366.03125 1191.421875 146.644531 1191.421875 146.644531 C 1191.421875 146.644531 1278.84375 591.535156 1552.304688 1123.863281 L 492.929688 1464.226562 C 492.929688 1464.226562 309.945312 1207.65625 123.265625 416.800781 Z M 123.265625 416.800781 " fill-opacity="0.4" fill-rule="nonzero"/></g></g></g></g><g clip-path="url(#ed607e9a9f)"><g clip-path="url(#6f46f3e43c)"><g clip-path="url(#59da06dec2)"><g clip-path="url(#9ee0ec31bf)"><path fill="#f0a3c7" d="M 115.417969 391.289062 C 101.640625 340.976562 1173.421875 83.71875 1173.421875 83.71875 C 1173.421875 83.71875 1303.183594 518.859375 1595.335938 1041.210938 L 521.960938 1424.957031 C 521.960938 1424.957031 329.992188 1175.015625 115.417969 391.289062 Z M 115.417969 391.289062 " fill-opacity="1" fill-rule="nonzero"/></g></g></g></g><g clip-path="url(#f958b4775e)"><g clip-path="url(#df4d7ebc61)"><g clip-path="url(#5c5179bc3d)"><g clip-path="url(#c1acdfb382)"><path fill="#b6dedd" d="M 935.820312 54.957031 L 1322.359375 219.144531 L 1275.851562 327.652344 L 889.308594 163.464844 Z M 157.515625 622.851562 L 424.453125 298.480469 L 333.101562 223.789062 L 66.164062 548.15625 Z M 157.515625 622.851562 " fill-opacity="0.7" fill-rule="nonzero"/></g></g></g></g></g></g></g><g clip-path="url(#255e1181a0)"><g clip-path="url(#dd6c50cb63)"><path fill="#252525" d="M 2383.308594 1772.75 L 2789.078125 1772.75 L 2789.078125 2639.769531 L 2383.308594 2639.769531 Z M 2383.308594 1772.75 " fill-opacity="1" fill-rule="nonzero"/></g></g><g clip-path="url(#620aa5ab78)"><g clip-path="url(#f76850b5c3)"><path fill="#252525" d="M 2542.433594 1536.050781 L 2804.734375 1536.050781 L 2804.734375 1776.730469 L 2542.433594 1776.730469 Z M 2542.433594 1536.050781 " fill-opacity="1" fill-rule="nonzero"/></g></g><g clip-path="url(#a8bf1724cb)"><g clip-path="url(#a446f77b51)"><path fill="#252525" d="M 2850.738281 1615.613281 L 3359.941406 1615.613281 L 3359.941406 2264.054688 L 2850.738281 2264.054688 Z M 2850.738281 1615.613281 " fill-opacity="1" fill-rule="nonzero"/></g></g><g clip-path="url(#4050a726f7)"><g clip-path="url(#b533589f9a)"><path fill="#252525" d="M 3336.074219 1621.582031 L 3912.90625 1621.582031 L 3912.90625 2229.960938 L 3336.074219 2229.960938 Z M 3336.074219 1621.582031 " fill-opacity="1" fill-rule="nonzero"/></g></g><g clip-path="url(#bf815f7d1e)"><g clip-path="url(#b6989ae27d)"><path fill="#252525" d="M 3837.320312 997.011719 L 4145.625 997.011719 L 4145.625 2278.410156 L 3837.320312 2278.410156 Z M 3837.320312 997.011719 " fill-opacity="1" fill-rule="nonzero"/></g></g><g clip-path="url(#938f54e500)"><g clip-path="url(#b304af79b4)"><path fill="#252525" d="M 3658.304688 1376.925781 L 4336.097656 1376.925781 L 4336.097656 1643.460938 L 3658.304688 1643.460938 Z M 3658.304688 1376.925781 " fill-opacity="1" fill-rule="nonzero"/></g></g><g clip-path="url(#f65468bcb8)"><g clip-path="url(#dffac76d5d)"><path fill="#252525" d="M 4109.824219 1639.484375 L 4646.875 1639.484375 L 4646.875 2289.816406 L 4109.824219 2289.816406 Z M 4109.824219 1639.484375 " fill-opacity="1" fill-rule="nonzero"/></g></g><g clip-path="url(#81a7226879)"><g clip-path="url(#a38b4c4236)"><path fill="#252525" d="M 716.464844 322.71875 L 1733.890625 322.71875 L 1733.890625 881.648438 L 716.464844 881.648438 Z M 716.464844 322.71875 " fill-opacity="1" fill-rule="nonzero"/></g></g><g clip-path="url(#539b277e70)"><g clip-path="url(#a793581db8)"><path fill="#252525" d="M 1726.914062 261.054688 L 2200.3125 261.054688 L 2200.3125 1050.671875 L 1726.914062 1050.671875 Z M 1726.914062 261.054688 " fill-opacity="1" fill-rule="nonzero"/></g></g></svg>